<svg width="2932" height="1080" version="1.1" viewBox="0 0 2932 1080" xmlns="http://www.w3.org/2000/svg"><rect id="sky" width="2932" height="1080" fill="#efb02f"/><g id="clouds"><path d="m1046.2 119.93c-8.4556-1.4922-13.957-11.08-11.288-17.033 0 0 1.0917-10.334 15.874-15.262 0-16.835 8.9123-24.949 8.9123-24.949 10.265-8.6228 26.817-1.2463 26.817-1.2463 10.265-17.246 20.976-16.492 20.976-16.492 13.6-3.6577 30.334 9.3086 30.334 9.3086 8.4174-4.722 11.702-4.3114 11.702-4.3114s4.8056-.34107 9.3076.82077c13.755-12.729 31.289-12.861 31.289-12.861 17.656 1.2318 19.501 8.7706 19.501 8.7706 4.9273 7.391 6.7751 17.656 6.7751 17.656 5.6983-2.4135 10.244-.41062 10.244-.41062 12.526 6.6817 15.505 20.549 15.505 20.549 21.146 4.1061 22.194 17.376 22.194 17.376.8212 11.086-10.207 18.421-18.662 18.669z" fill="#fff" fill-opacity=".5"/><path d="m644.99 422.05 116.86-.007s22.484-.42582 22.181-22.21c-.90761-16.641-23.622-15.194-23.622-15.194-8.621-17.055-15.136-21.009-26.589-22.282-3.6026-17.099-3.4357-25.785-24.778-29.226-17.764.64658-31.558 9.681-36.847 19.678-3.9161 7.4024-19.444-.59314-28.823-1.1983-21.179 1.2102-33.508 12.123-33.508 12.123-6.0511-14.22-29.344-4.4851-29.344-4.4851-13.312 9.3793-11.958 28.909-11.958 28.909-16.186 1.4038-18.357 9.0589-16.481 16.363 1.8758 7.3042 7.798 16.375 12.034 16.678 14.523 1.8153 80.872.85009 80.872.85009z" fill="#fff" fill-opacity=".50196"/><path d="m644.7 296.66s27.821 13.989 31.998 22.342c.6961 8.0052.34807 9.7455.34807 9.7455s15.662-5.5688 19.491-5.9169c3.8286 0 15.466.80802 15.815 8.4652 0 3.4805-2.0883 5.5688-2.0883 5.5688s-1.7403 1.0442-7.6572-5.5688c-3.8286.34806-13.574 4.5247-13.574 4.5247s8.3532-2.0883 14.966 1.3922c2.4364 2.4364 4.5004 10.013 4.5004 18.018.34808 3.4805-4.1766 3.8286-4.1766 3.8286s-3.8286-1e-5-3.8286-2.4364c0 0-.21417-7.4697-1.2584-14.083 0 0-2.5167-4.7389-13.36-.1874-2.9986 1.1245-12.951 17.519-38.92 23.736l-17.946-.45773c-2.6238 2.249-5.3768 8.9751-5.1894 14.035 3.186 3.186 19.821 7.6175 19.821 7.6175 1.1245 3.3734.0668 2.6932-1.2451 5.6918-15.555-.56225-25.551-7.5984-25.551-7.5984-2.4364-8.8084.52214-12.471.52214-12.471l3.6034-6.8487c1.6867-.74965.41727-2.913.41727-2.913-3.3734-2.6238-5.2051-.47668-5.2051-.47668-3.5608 1.3119-8.5785 5.3331-10.078 8.894.37482 3.9357 5.2546 12.941 5.2546 12.941 1.3119 2.249-1.9289 4.2041-1.9289 4.2041-7.945-1.4716-10.272-17.326-9.8972-19.013 4.1231-7.6839 7.2201-7.9816 7.045-8.9448.93707-3.7483-7.4433.0538-9.72 3.2061-1.2259 2.4518.35309 9.5194-4.5215 9.3801-5.0787.17513-3.4706-10.226-3.4706-10.226.35027-7.0051 27.98-14.388 27.98-14.388 4.6853-17.804 27.02-26.503 27.02-26.503 10.683-1.6867 22.828 7.3062 22.641 5.2447 1.6867-2.9986-25.348-16.494-28.159-19.118-.93707-1.1245-2.3406-4.9422 1.1564-4.7056 4.7893.32406 15.802 8.813 17.114 8.7193 0 0-3.6572-3.8576-5.9062-5.3569l-9.4881-5.3382s-1.1245-1.1512 0-4.5247c0 0 2.352-1.7904 3.4765-.47849z" fill="#e19219"/><path d="m313.01 120.19s-16.484-.37186-16.209-16.306c0 0 5.7023-43.42 41.141-46.991 0 0 14.011-1.9231 27.197 9.6152 0 0-2.1978-12.088 15.11-21.154 0 0 9.1362-3.8461 22.872 4.6703 0 0 4.1622-19.546 23.427-21.717 21.186-2.0273 56.184 48.612 53.162 63.721-1.7757 16.999-10.751 24.734-26.648 27.472-2.405-.48634-140.05.68865-140.05.68865z" fill="#fff" fill-opacity=".5"/><path d="m398.9 816.15s-26.249-.59214-25.812-25.965c0 0 9.0802-69.141 65.513-74.828 0 0 22.311-3.0622 43.309 15.311 0 0-3.4997-19.248 24.06-33.685 0 0 14.548-6.1245 36.421 7.4368 0 0 6.6278-31.125 37.305-34.582 33.736-3.2282 89.466 77.408 84.654 101.47-2.8276 27.069-17.12 39.386-42.434 43.746-3.8297-.77444-223.02 1.0966-223.02 1.0966z" fill="#fff" fill-opacity=".5"/><path d="m96.926 470.59s16.881-3.6098 21.186 12.998c1.603 7.7476-.85739 17.49-.85739 17.49 6.766-3.6905 15.377-6.766 23.373-6.766 0 0 25.031-.36143 37.588 15.935 10.72-8.624 39.786 1.9152 39.566 12.723.40689 11.393-9.6282 11.341-9.6282 11.341l-178.79-.11987c-8.3124 0-29.625-13.785-29.358-35.692 1.0686-20.304 29.647-34.581 29.647-34.581 8.5491-24.044 25.238-19.369 25.238-19.369 8.0148 1.0686 17.579 16.841 17.579 16.841 10.726-4.2138 23.642 2.2139 24.46 9.2005z" fill="#fff" fill-opacity=".5"/></g><g id="cloudscopy"><path d="m2512.2 119.93c-8.4556-1.4922-13.957-11.08-11.288-17.033 0 0 1.0917-10.334 15.874-15.262 0-16.835 8.9123-24.949 8.9123-24.949 10.265-8.6228 26.817-1.2463 26.817-1.2463 10.265-17.246 20.976-16.492 20.976-16.492 13.6-3.6577 30.334 9.3086 30.334 9.3086 8.4174-4.722 11.702-4.3114 11.702-4.3114s4.8056-.34107 9.3076.82077c13.755-12.729 31.289-12.861 31.289-12.861 17.656 1.2318 19.501 8.7706 19.501 8.7706 4.9273 7.391 6.7751 17.656 6.7751 17.656 5.6983-2.4135 10.244-.41062 10.244-.41062 12.526 6.6817 15.505 20.549 15.505 20.549 21.146 4.1061 22.194 17.376 22.194 17.376.8212 11.086-10.207 18.421-18.662 18.669z" fill="#fff" fill-opacity=".5"/><path d="m2111 422.05 116.86-.007s22.484-.42582 22.181-22.21c-.9077-16.641-23.622-15.194-23.622-15.194-8.621-17.055-15.136-21.009-26.589-22.282-3.6026-17.099-3.4357-25.785-24.778-29.226-17.764.64658-31.558 9.681-36.847 19.678-3.9161 7.4024-19.444-.59314-28.824-1.1983-21.179 1.2102-33.508 12.123-33.508 12.123-6.0511-14.22-29.344-4.4851-29.344-4.4851-13.312 9.3793-11.958 28.909-11.958 28.909-16.186 1.4038-18.357 9.0589-16.481 16.363 1.8757 7.3042 7.798 16.375 12.034 16.678 14.523 1.8153 80.872.85009 80.872.85009z" fill="#fff" fill-opacity=".50196"/><path d="m2110.7 296.66s27.822 13.989 31.998 22.342c.6961 8.0052.3481 9.7455.3481 9.7455s15.662-5.5688 19.491-5.9169c3.8286 0 15.466.80802 15.814 8.4652 0 3.4805-2.0883 5.5688-2.0883 5.5688s-1.7403 1.0442-7.6572-5.5688c-3.8285.34806-13.574 4.5247-13.574 4.5247s8.3532-2.0883 14.966 1.3922c2.4363 2.4364 4.5003 10.013 4.5003 18.018.3481 3.4805-4.1766 3.8286-4.1766 3.8286s-3.8286-1e-5-3.8286-2.4364c0 0-.2142-7.4697-1.2584-14.083 0 0-2.5167-4.7389-13.36-.1874-2.9986 1.1245-12.951 17.519-38.92 23.736l-17.946-.45773c-2.6238 2.249-5.3768 8.9751-5.1894 14.035 3.186 3.186 19.821 7.6175 19.821 7.6175 1.1245 3.3734.067 2.6932-1.2451 5.6918-15.555-.56225-25.55-7.5984-25.55-7.5984-2.4364-8.8084.5222-12.471.5222-12.471l3.6033-6.8487c1.6867-.74965.4173-2.913.4173-2.913-3.3735-2.6238-5.2051-.47668-5.2051-.47668-3.5608 1.3119-8.5785 5.3331-10.078 8.894.3748 3.9357 5.2546 12.941 5.2546 12.941 1.3119 2.249-1.9289 4.2041-1.9289 4.2041-7.9451-1.4716-10.272-17.326-9.8973-19.013 4.1231-7.6839 7.2201-7.9816 7.045-8.9448.9371-3.7483-7.4433.0538-9.7199 3.2061-1.2259 2.4518.3531 9.5194-4.5215 9.3801-5.0787.17513-3.4706-10.226-3.4706-10.226.3502-7.0051 27.98-14.388 27.98-14.388 4.6853-17.804 27.02-26.503 27.02-26.503 10.682-1.6867 22.828 7.3062 22.641 5.2447 1.6867-2.9986-25.348-16.494-28.159-19.118-.9371-1.1245-2.3406-4.9422 1.1563-4.7056 4.7893.32406 15.802 8.813 17.114 8.7193 0 0-3.6572-3.8576-5.9061-5.3569l-9.4881-5.3382s-1.1245-1.1512 0-4.5247c0 0 2.352-1.7904 3.4765-.47849z" fill="#e19219"/><path d="m1779 120.19s-16.484-.37186-16.21-16.306c0 0 5.7023-43.42 41.141-46.991 0 0 14.011-1.9231 27.197 9.6152 0 0-2.1978-12.088 15.11-21.154 0 0 9.1361-3.8461 22.872 4.6703 0 0 4.1622-19.546 23.427-21.717 21.186-2.0273 56.184 48.612 53.162 63.721-1.7757 16.999-10.752 24.734-26.648 27.472-2.405-.48634-140.05.68865-140.05.68865z" fill="#fff" fill-opacity=".5"/><path d="m1864.9 816.15s-26.249-.59214-25.812-25.965c0 0 9.0802-69.141 65.513-74.828 0 0 22.31-3.0622 43.309 15.311 0 0-3.4997-19.248 24.06-33.685 0 0 14.548-6.1245 36.421 7.4368 0 0 6.6278-31.125 37.305-34.582 33.736-3.2282 89.466 77.408 84.654 101.47-2.8276 27.069-17.12 39.386-42.434 43.746-3.8297-.77444-223.02 1.0966-223.02 1.0966z" fill="#fff" fill-opacity=".5"/><path d="m1562.9 470.59s16.881-3.6098 21.186 12.998c1.603 7.7476-.8574 17.49-.8574 17.49 6.766-3.6905 15.377-6.766 23.373-6.766 0 0 25.031-.36143 37.588 15.935 10.72-8.624 39.786 1.9152 39.566 12.723.4069 11.393-9.6282 11.341-9.6282 11.341l-178.79-.11987c-8.3125 0-29.626-13.785-29.358-35.692 1.0686-20.304 29.647-34.581 29.647-34.581 8.549-24.044 25.238-19.369 25.238-19.369 8.0147 1.0686 17.578 16.841 17.578 16.841 10.726-4.2138 23.642 2.2139 24.46 9.2005z" fill="#fff" fill-opacity=".5"/></g><rect y="916.6" width="2932" height="163.4" fill="#046755" stroke-width="1.2572"/><rect x=".3086" y="970" width="2932" height="27.565" fill="#067d61"/><rect y="873.38" width="2932" height="43.24" fill="#798a91" stroke-width="1.1518"/><g id="citycopy"><path d="m1785 760.79h43.989v79.109h57.46v-145.86h67.61v158.13h59.948v-137.52h69.904l-.035 100.21h39.338l-.4545-15.909h7.2713v-44.952h58.321v87.504l160.91 1.5766-1.0512-140.33h29.25v-33.578h2.2451v-23.755h1.9538v-8.6325h1.8847v-3.528l4.336-22.099h2.6784l-.1709-3.6361h3.7368v-32.649h2.1479v36.285h2.3217v-3.6361h3.2512v3.6361h3.0338l4.166 22.091v3.537h1.9832l.1803 8.6325h1.6049l-.079 23.755h2.9182v33.578h19.078l1.761 137.95 80.99 1.2668.8764-25.114 10.524-.0364v-42.353h16.674l.124 85.819h74.581l.9384-153.96h4.7529v-4.5756h33.932v4.5756h29.151l-.4895 110.08h22.214v-19.824h8.3339v-60.07h41.052v123.78h33.742v-174.58h28.987l.9617 174.58h8.0639l-1.0021-113.65 64.143-.65527 36.935 98.907v28.033h-1464v-123.67h79.104v-72.431h27.82v16.811h96.754v5.0482h19.373v10.494h21.546v3.8595h2.0323v29.43h3.8837v23.493h29.306l1.0892 73.943h37.708z" fill="#741c34"/><path d="m2485.8 577.66.7771 51.441-2.5659.0332-.4257-7.6855-9.2422 8.1738.4179 90.545-11.754-.12304-.1855-3.3633-10.168.35938-.031 2.6738-3.1342.082.7675 139.06h-65.346v-166.25h-6.2214v-2.8203h-6.0672v-1.5976l-13.482.25586.055-2.8125-3.546 4.1543h-3.4466l-.1-2.9824h-3.4368l.1444 2.5938h-11.361v2.7285h-5.9089v6.0078h-18.178v-6.918h-36.042v5.9102l-57.215-.53906v162.27h-172.96l-.3359-64.86-.4393-8.3574 7.8929-.0234-38.17-38.15-16.635-15.746-17.725 17.728-17.268-.45508v109.86h-67.02v-109.54h-60.441l.4491 109.54h-91.066v-73.249h-31.033l-.7615 73.249h-23.62v-121.9h-31.291v121.9h-193.71v14.059h1466v-79.909l-4.9169-.10351-.072-106.97-1.7222-.10157.5935-22.312-4.6669-5.2441-83.503.40039 4.5226 14.361h-2.0973l.125 12.971h-1.6793l-2.8003 172.85h-48.781v-99.028h-16.848v-10.334h-20.81v109.36h-63.571v-72.792h-28.947v72.792h-26.085v-118.62h-65.784v118.62h-47.151l-1.4762-119.8-5.4267.12891-.018-27.541-12.986-17.852-6.3855.9668-.025-13.416-6.6979-.57227-.2207-29.252 4.4093 5.0234-.084-78.582zm-3.427 57.066h3.3664v3.3105h-3.3664zm0 7.2832h3.3664v3.3105h-3.3664zm393.36 18.961h4.464v12.648zm6.5104.18554h2.4175l-1.859 6.5098zm-17.125.18946h6.8345l-2.7416 10.602zm52.802.0937-2.7905 12.277-4.4619-12.092zm-76.389.13476 6.5181.26953-1.486 9.3008zm45.889.0937h6.6939l-3.9054 11.533zm12.831 0 7.2524.18555-2.0444 11.906zm-43.648.17578-.9294 8-1.488-7.8125zm64.095.19336 2.9759 9.3008-5.579-.55859zm-11.334 2.1934 2.976 7.627-4.2785-.93165zm-23.774.0879.373 9.4863-3.5345-.92969zm-22.331.375 3.5325 6.6973-4.462.18555zm34.575.13672 2.7904 9.3008-5.7663-.74414zm-46.436.36328 2.2319 8.3711-4.2784-.37305zm23.027.83008 2.6049 8.3711-5.208-1.1172z" fill="#f3796c"/><path d="m1750.8 589.27 2.4436-12.16 4.025 10.522 3.2398.49415 1.1841-5.4176 1.184 5.3778 11.72 1.1835 2.7258-7.3921 2.8361 7.177 2.3589-5.6747 1.8769 4.1026 2.4803.25205 1.7623-2.7013 1.5114 4.047 19.765.18945v16.581h-6.5762v5.8467h6.5762v195.99h6.4683v20.211h7.1393l4.1406-12.911.8299-46.866 19.572-3.4106v-55.352l95.717 48.097v6.8211h31.633l.669 29.534-11.204-1.218v10.232l5.1147.97445-.2435-1.9489 16.257-.26733 4.8712 2.4361.4872-4.8722h10.473l-.4872 5.1158 8.0376-.73083v25.366h20.328l.7306-6.2076h17.902l-.9743-10.7 18.792.52802 4.1406 15.534 9.0118-.24361v-9.7445h12.665l3.5922-137.04h15.101l7.2683 146.66h9.4989l.2436-10.963h20.669l-3.2311-127.37 7.5503.48722-3.2825-29.094 17.78.15615-2.4926-23.681 6.4842.30699.1493-11.101 18.762-38.093h31.243l18.762 38.093-4e-4 11.721h7.0633l-2.1921 1.4617-.7306 20.463 15.957.18706-2.4356 2.9233.013 26.351 8.7684.48721-3.41 3.167-.2673 114.45 9.9521.97445v-3.6542h20.575l3.4276 4.0308v18.285h4.6407l.9487-38.008h12.557l-.4871 6.821 14.777.61973v29.729h7.5385v-26.068h5.8455l4.8712 9.2572.5581-40.2 6.5762-5.6031-.4871-15.348 6.9034-5.6675h12.698v-42.384h7.1052l.8089 42.384h9.9544l.9498-42.384h6.7535l.9283 42.384h10.427l.4189-42.384h7.4194l.7847 42.384h11.331l-.4353-42.384h8.258l.1288 42.384 11.562.62883 4.5817 5.1075-.6078 14.896 7.24 5.7677v44.091h9.3514v14.655h17.683v-42.047h18.471v6.1593l12.234 2.0859.3052 33.802h6.9717l-.3774-27.469h9.3028l.3656 7.2908 9.7855.18199-.3737-199.53h70.333l1.526 191.69h11.748v-6.0329l19.97.12115-.041 5.9118h14.153v19.381h16.646v-15.911l13.041.1723 4.018 15.738v7.1991h5.1762l3.6598 7.5103h2.2968l-.015-6.5106h7.3869v-11.194h24.447v-42.312h37.64v-7.9761h57.919v9.4563h38.04v51.01h6.3049l-.1313-7.5941h11.892v4.5555h10.956v-14.637h29.919v64.367h-1467v-291.38h73.868v234.96h5.4226v10.096h5.5093v-28.822h10.548v-116.79h27.47v-23.969h74.666v156.76h19.28v-15.084h18.183v27.559h6.3037v-10.373h21.29l5.146 12.266.7873-216.04-3.0309-3.8895-.5543-19.406z" fill="#ef494d"/></g><g id="city"><path d="m319.02 760.79h43.989v79.109h57.46v-145.86h67.61v158.13h59.948v-137.52h69.904l-.035 100.21h39.338l-.45451-15.909h7.2713v-44.952h58.321v87.504l160.91 1.5766-1.0512-140.33h29.25v-33.578h2.2452v-23.755h1.9538v-8.6325h1.8847v-3.528l4.3359-22.099h2.6785l-.17097-3.6361h3.7368v-32.649h2.1479v36.285h2.3217v-3.6361h3.2512v3.6361h3.0338l4.166 22.091v3.537h1.9832l.18037 8.6325h1.6049l-.079 23.755h2.9182v33.578h19.078l1.761 137.95 80.99 1.2668.8764-25.114 10.524-.0364v-42.353h16.674l.124 85.819h74.581l.9384-153.96h4.7529v-4.5756h33.932v4.5756h29.151l-.4895 110.08h22.214v-19.824h8.3339v-60.07h41.052v123.78h33.742v-174.58h28.987l.9617 174.58h8.0639l-1.0021-113.65 64.143-.65527 36.935 98.907v28.033h-1464v-123.67h79.104v-72.431h27.819v16.811h96.754v5.0482h19.373v10.494h21.546v3.8595h2.0323v29.43h3.8837v23.493h29.306l1.0892 73.943h37.708z" fill="#741c34"/><path d="m1019.8 577.66.7771 51.441-2.5659.0332-.4257-7.6855-9.2422 8.1738.4179 90.545-11.754-.12304-.18546-3.3633-10.168.35938-.031 2.6738-3.1342.082.76744 139.06h-65.346v-166.25h-6.2214v-2.8203h-6.0672v-1.5976l-13.482.25586.055-2.8125-3.5461 4.1543h-3.4466l-.1-2.9824h-3.4368l.14447 2.5938h-11.361v2.7285h-5.9089v6.0078h-18.178v-6.918h-36.042v5.9102l-57.215-.53906v162.27h-172.96l-.33584-64.86-.43931-8.3574 7.8929-.0234-38.17-38.15-16.635-15.746-17.725 17.728-17.268-.45508v109.86h-67.02v-109.54h-60.441l.4491 109.54h-91.066v-73.249h-31.033l-.76155 73.249h-23.62v-121.9h-31.291v121.9h-193.71v14.059h1466v-79.909l-4.9169-.10351-.072-106.97-1.7222-.10157.5935-22.312-4.6669-5.2441-83.503.40039 4.5226 14.361h-2.0973l.125 12.971h-1.6793l-2.8003 172.85h-48.781v-99.028h-16.848v-10.334h-20.81v109.36h-63.571v-72.792h-28.947v72.792h-26.085v-118.62h-65.784v118.62h-47.151l-1.4762-119.8-5.4267.12891-.018-27.541-12.986-17.852-6.3855.9668-.025-13.416-6.6979-.57227-.2207-29.252 4.4093 5.0234-.084-78.582zm-3.427 57.066h3.3664v3.3105h-3.3664zm0 7.2832h3.3664v3.3105h-3.3664zm393.36 18.961h4.464v12.648zm6.5104.18554h2.4175l-1.859 6.5098zm-17.125.18946h6.8345l-2.7416 10.602zm52.802.0937-2.7905 12.277-4.4619-12.092zm-76.389.13476 6.5181.26953-1.486 9.3008zm45.889.0937h6.6939l-3.9054 11.533zm12.831 0 7.2524.18555-2.0444 11.906zm-43.648.17578-.9294 8-1.488-7.8125zm64.095.19336 2.9759 9.3008-5.579-.55859zm-11.334 2.1934 2.976 7.627-4.2785-.93165zm-23.774.0879.373 9.4863-3.5345-.92969zm-22.331.375 3.5325 6.6973-4.462.18555zm34.575.13672 2.7904 9.3008-5.7663-.74414zm-46.436.36328 2.2319 8.3711-4.2784-.37305zm23.027.83008 2.6049 8.3711-5.208-1.1172z" fill="#f3796c"/><path d="m284.84 589.27 2.4436-12.16 4.025 10.522 3.2398.49415 1.1841-5.4176 1.1841 5.3778 11.72 1.1835 2.7258-7.3921 2.836 7.177 2.3589-5.6747 1.8769 4.1026 2.4803.25205 1.7624-2.7013 1.5114 4.047 19.765.18945v16.581h-6.5762v5.8467h6.5762v195.99h6.4684v20.211h7.1392l4.1406-12.911.82993-46.866 19.572-3.4106v-55.352l95.717 48.097v6.8211h31.633l.66897 29.534-11.204-1.218v10.232l5.1148.97445-.24355-1.9489 16.257-.26733 4.8712 2.4361.4872-4.8722h10.473l-.4872 5.1158 8.0376-.73083v25.366h20.328l.73065-6.2076h17.901l-.9743-10.7 18.792.52802 4.1406 15.534 9.0118-.24361v-9.7445h12.665l3.5922-137.04h15.101l7.2682 146.66h9.499l.24355-10.963h20.669l-3.2312-127.37 7.5504.48722-3.2825-29.094 17.78.15615-2.4926-23.681 6.4842.30699.14927-11.101 18.762-38.093h31.243l18.762 38.093-4e-4 11.721h7.0633l-2.1921 1.4617-.73065 20.463 15.957.18706-2.4356 2.9233.013 26.351 8.7683.48721-3.4099 3.167-.26734 114.45 9.9521.97445v-3.6542h20.575l3.4276 4.0308v18.285h4.6407l.9487-38.008h12.557l-.4871 6.821 14.777.61973v29.729h7.5385v-26.068h5.8455l4.8712 9.2572.55809-40.2 6.5762-5.6031-.4871-15.348 6.9034-5.6675h12.698v-42.384h7.1052l.80894 42.384h9.9544l.94981-42.384h6.7535l.92822 42.384h10.427l.41892-42.384h7.4194l.78474 42.384h11.331l-.43531-42.384h8.258l.12878 42.384 11.561.62883 4.5817 5.1075-.60778 14.896 7.24 5.7677v44.091h9.3514v14.655h17.683v-42.047h18.471v6.1593l12.234 2.0859.3052 33.802h6.9717l-.3774-27.469h9.3028l.3656 7.2908 9.7855.18199-.3737-199.53h70.333l1.526 191.69h11.748v-6.0329l19.97.12115-.041 5.9118h14.153v19.381h16.646v-15.911l13.041.1723 4.018 15.738v7.1991h5.1762l3.6598 7.5103h2.2968l-.015-6.5106h7.3869v-11.194h24.447v-42.312h37.64v-7.9761h57.919v9.4563h38.04v51.01h6.3049l-.1313-7.5941h11.892v4.5555h10.956v-14.637h29.919v64.367h-1467v-291.38h73.868v234.96h5.4227v10.096h5.5093v-28.822h10.548v-116.79h27.47v-23.969h74.666v156.76h19.28v-15.084h18.183v27.559h6.3037v-10.373h21.29l5.146 12.266.78734-216.04-3.0309-3.8895-.55429-19.406z" fill="#ef494d"/></g><g id="bus"><path d="m2754.7 833.96-.056 10.173 1.7519.99019-1.828 12.073-1.2949.76168-.058 11.946h4.6463l-.01 3.6024 153.73.0396 5.087-1.6521 8.4789-.007 4.0369-1.9042-.076-4.1131 2.8944-.22851-1.9644-30.771-2.8183-1.5234z" fill="#fefefe"/><rect x="2851.8" y="843.8" width="18.561" height=".43891" fill="#798a91"/><rect x="2851.8" y="843.8" width="15.476" height="29.619" fill="#798a91"/><rect x="2852.2" y="844.12" width="6.2246" height="28.952" fill="#d2d2d2"/><rect x="2852.5" y="844.93" width="2.2583" height="21.888" fill="#6e1227" stroke-width=".63676"/><rect x="2860.4" y="844.12" width="6.2246" height="28.952" fill="#d2d2d2"/><rect x="2860.6" y="844.93" width="2.2583" height="21.888" fill="#6e1227" stroke-width=".63676"/><rect x="2762.6" y="843.8" width="18.561" height=".43891" fill="#798a91"/><rect x="2762.6" y="843.8" width="15.476" height="29.619" fill="#798a91"/><rect x="2770.4" y="844.12" width="6.2246" height="28.952" fill="#d2d2d2"/><rect x="2770.7" y="844.93" width="2.2583" height="21.888" fill="#6e1227" stroke-width=".63676"/><rect x="2763" y="844.13" width="6.2246" height="28.952" fill="#d2d2d2"/><rect x="2763.3" y="844.93" width="2.2583" height="21.888" fill="#6e1227" stroke-width=".63676"/><rect x="2782.7" y="845.39" width="19.678" height="14.192" ry="2.3196" fill="#6e1227" stroke-width=".36085"/><rect x="2803.7" y="845.39" width="19.678" height="14.192" ry="2.3196" fill="#6e1227" stroke-width=".36085"/><rect x="2874.8" y="845.39" width="19.678" height="14.192" ry="2.3196" fill="#6e1227" stroke-width=".36085"/><rect x="2898.1" y="845.39" width="19.678" height="14.192" ry="2.3196" fill="#6e1227" stroke-width=".36085"/><rect x="2827.1" y="845.39" width="19.678" height="14.192" ry="2.3196" fill="#6e1227" stroke-width=".36085"/><path d="m2776.4 873.57c-.4046-4.161.1508-11.11 8.3326-11.726 8.9893.0104 9.7291 8.1167 8.8558 11.735z" fill="#010101"/><ellipse cx="2785.1" cy="870.85" rx="8.4253" ry="8.599" fill="#343434" stroke-width=".60295"/><ellipse cx="2785.3" cy="870.7" rx="4.9509" ry="5.05" fill="#666" stroke-width=".7259"/><rect x="2753.2" y="869.19" width="2.3648" height="2.3042" fill="#343434"/><rect x="2756.4" y="834.2" width="172.56" height="9.0419" ry="1.2824" fill="#6e1227" stroke-width=".3888"/><path d="m2851.7 833.59 3.1432-4.5384 68.347.0697 4.145 4.1822z" fill="#d2d2d2"/><rect x="2915.9" y="829.05" width="1.2187" height="2.8944" fill="#798a91"/><rect x="2913.5" y="829.05" width="1.2187" height="2.8944" fill="#798a91"/><rect x="2911.2" y="829.05" width="1.2187" height="2.8944" fill="#798a91"/><rect x="2908.9" y="829.05" width="1.2187" height="2.8944" fill="#798a91"/><rect x="2921.8" y="829.05" width="1.2187" height="2.8944" fill="#798a91"/><rect x="2906.5" y="829.05" width="1.2187" height="2.8944" fill="#798a91"/><path d="m2882.9 873.57c-.4046-4.161.1507-11.11 8.3326-11.726 8.9892.0104 9.7291 8.1166 8.8558 11.735z" fill="#010101"/><ellipse cx="2891.7" cy="870.87" rx="8.4253" ry="8.599" fill="#343434" stroke-width=".60295"/><ellipse cx="2891.9" cy="870.72" rx="4.9509" ry="5.05" fill="#666" stroke-width=".7259"/></g><g id="tram"><rect x="194.06" y="837.53" width="81.692" height="56.272" fill="#969694"/><rect x="274.15" y="837.53" width=".95125" height="56.272" fill="#838381"/><rect x="270.89" y="837.53" width=".95125" height="56.272" fill="#838381"/><rect x="267.97" y="837.53" width=".95125" height="56.272" fill="#838381"/><rect x="265.47" y="837.53" width=".95125" height="56.272" fill="#838381"/><rect x="206.65" y="837.53" width="58.272" height="56.272" fill="#fefefe"/><rect x="206.65" y="853.1" width="58.272" height="29.266" fill="#9c2136"/><rect x="215.66" y="855.77" width="40.183" height="21.266" rx="1.0633" ry="1.06" fill="#6e1227" stroke-width="1.5925"/><rect x="204.4" y="837.53" width=".95125" height="56.272" fill="#838381"/><rect x="200.76" y="837.53" width=".95125" height="56.272" fill="#838381"/><rect x="196.41" y="837.53" width=".95125" height="56.272" fill="#838381"/><rect x="195.24" y="837.53" width=".95125" height="56.272" fill="#838381"/><path d="m193.91 837.53.31202 56.135-177.38.13757-.21916-8.3705s-16.072.25156-16.323-.18852c-.35534-.74326-.55897-1.5884.35265-2.1212.55744-.42496 2.0825-1.8049 2.6618-2.3842.13529-.47943-.095624-6.1247.10254-7.4215.57933-.72416 1.7227-1.4068 1.9114-1.6268.18862-.28292 7.3849-27.586 7.3849-27.586.61494-1.8542 4.6469-5.9623 9.9765-6.4774z" fill="#fefefe"/><path d="m12.366 846.19 11.407-.0548c4.0494.14462 12.36 7.1793 12.36 7.1793l157.96.37954.0191 26.814s-166.12-.53993-170.33.79176c-1.3541.0641-2.2046.44029-5.3687 2.2266-2.8466.0897-9.2464-.14909-17.293-5e-5.16646-.83231 1.5665-1.4243 2.4342-2.5813.43387-1.8801-.28924-5.7849.14463-7.5204.86774-1.0124 1.8801-1.6525 1.8801-1.6525s6.0696-23.413 6.7927-25.582z" fill="#9c2136"/><rect x="90.564" y="856.63" width="23.393" height="23.643" fill="#8e2036"/><rect x="90.45" y="881.81" width="23.393" height="13.176" fill="#d2d2d2"/><rect x="89.005" y="855.23" width="28.058" height="1.3952" fill="#af8d93"/><rect x="101.77" y="856.61" width=".87805" height="38.382" fill="#a1a1a1"/><rect x="106.26" y="858.43" width="6.3103" height="19.962" fill="#6e1227"/><rect x="93.756" y="858.43" width="6.3103" height="19.962" fill="#6e1227"/><rect x="152.99" y="856.63" width="23.393" height="23.643" fill="#8e2036"/><rect x="152.87" y="881.81" width="23.393" height="13.176" fill="#d2d2d2"/><rect x="151.43" y="855.23" width="28.058" height="1.3952" fill="#af8d93"/><rect x="164.19" y="856.61" width=".87805" height="38.382" fill="#a1a1a1"/><rect x="168.68" y="858.43" width="6.3103" height="19.962" fill="#6e1227"/><rect x="156.18" y="858.43" width="6.3103" height="19.962" fill="#6e1227"/><rect x="120.98" y="855.77" width="26.392" height="21.266" rx="1.0633" ry="1.0692" fill="#6e1227" stroke-width="1.5994"/><rect x="41.395" y="855.77" width="43.283" height="21.266" rx="1.0633" ry="1.06" fill="#6e1227" stroke-width="1.5925"/><rect x="181.93" y="855.77" width="8.5259" height="21.266" rx="1.595" ry="1.5518" fill="#6e1227" stroke-width="1.5733"/><path d="m6.0763 885.45 10.542 9e-5.21725 9.3558h-7.7509s2.1702-2.0152 1.8602-3.8754c0-2.0152-2.947-2.6497-2.947-2.6497z" fill="#333"/><path d="m12.437 846.06 5.6867.0832c-6.6657 12.091-8.804 24.06-8.804 24.06l-3.4104.31003z" fill="#6e1227"/><path d="m30.336 849.38-.83786 16.443c-.77508 4.0304-3.7204 4.6505-3.7204 4.6505s-8.579.62007-13.229 0c0-2.4803 3.178-14.295 5.6582-18.015 3.4104-2.9453 8.2541-3.5433 12.13-3.0782z" fill="#6e1227"/><path d="m275.87 837.53-.31202 56.135 177.38.13757.21916-8.3705s16.072.25156 16.323-.18852c.35534-.74326.55897-1.5884-.35265-2.1212-.55744-.42496-2.0825-1.8049-2.6618-2.3842-.1353-.47943.0956-6.1247-.10254-7.4215-.57933-.72416-1.7227-1.4068-1.9114-1.6268-.18862-.28292-7.3849-27.586-7.3849-27.586-.61494-1.8542-4.6469-5.9623-9.9764-6.4774z" fill="#fefefe"/><path d="m457.42 846.19-11.407-.0548c-4.0494.14462-12.36 7.1793-12.36 7.1793l-157.8.37954-.0723 26.814s166.01-.53993 170.23.79176c1.3541.0641 2.2046.44029 5.3687 2.2266 2.8466.0897 9.2464-.14909 17.293-5e-5-.16647-.83231-1.5665-1.4243-2.4342-2.5813-.43386-1.8801.28924-5.7849-.14463-7.5204-.86773-1.0124-1.8801-1.6525-1.8801-1.6525s-6.0696-23.413-6.7927-25.582z" fill="#9c2136"/><rect transform="scale(-1,1)" x="-379.22" y="856.63" width="23.393" height="23.643" fill="#8e2036"/><rect transform="scale(-1,1)" x="-379.34" y="881.81" width="23.393" height="13.176" fill="#d2d2d2"/><rect transform="scale(-1,1)" x="-380.78" y="855.23" width="28.058" height="1.3952" fill="#af8d93"/><rect transform="scale(-1,1)" x="-368.02" y="856.61" width=".87805" height="38.382" fill="#a1a1a1"/><rect transform="scale(-1,1)" x="-363.53" y="858.43" width="6.3103" height="19.962" fill="#6e1227"/><rect transform="scale(-1,1)" x="-376.03" y="858.43" width="6.3103" height="19.962" fill="#6e1227"/><rect transform="scale(-1,1)" x="-316.8" y="856.63" width="23.393" height="23.643" fill="#8e2036"/><rect transform="scale(-1,1)" x="-316.91" y="881.81" width="23.393" height="13.176" fill="#d2d2d2"/><rect transform="scale(-1,1)" x="-318.36" y="855.23" width="28.058" height="1.3952" fill="#af8d93"/><rect transform="scale(-1,1)" x="-305.59" y="856.61" width=".87805" height="38.382" fill="#a1a1a1"/><rect transform="scale(-1,1)" x="-301.1" y="858.43" width="6.3103" height="19.962" fill="#6e1227"/><rect transform="scale(-1,1)" x="-313.61" y="858.43" width="6.3103" height="19.962" fill="#6e1227"/><rect transform="scale(-1,1)" x="-348.8" y="855.77" width="26.392" height="21.266" rx="1.0633" ry="1.0692" fill="#6e1227" stroke-width="1.5994"/><rect transform="scale(-1,1)" x="-428.39" y="855.77" width="43.283" height="21.266" rx="1.0633" ry="1.06" fill="#6e1227" stroke-width="1.5925"/><rect transform="scale(-1,1)" x="-287.85" y="855.77" width="8.5259" height="21.266" rx="1.595" ry="1.5518" fill="#6e1227" stroke-width="1.5733"/><path d="m463.71 885.45-10.542 9e-5-.21725 9.3558h7.7509s-2.1702-2.0152-1.8602-3.8754c0-2.0152 2.947-2.6497 2.947-2.6497z" fill="#333"/><path d="m457.35 846.06-5.6867.0832c6.6657 12.091 8.804 24.06 8.804 24.06l3.4104.31003z" fill="#6e1227"/><path d="m439.45 849.38.83785 16.443c.77509 4.0304 3.7204 4.6505 3.7204 4.6505s8.579.62007 13.229 0c0-2.4803-3.178-14.295-5.6582-18.015-3.4104-2.9453-8.2541-3.5433-12.13-3.0782z" fill="#6e1227"/></g><g id="train"><path d="m560.97 949.82c-16.223-31.476-49.092-30.914-49.092-30.914l-194.83-.22895c-1.4484 0-3.4209.57722-3.6623 4.1983l-.02 35.298c-.1207 1.0863.9457 2.7027 2.877 2.7027h239.91c12.258.23646 4.8114-11.056 4.8114-11.056z" fill="#b1b2b4" stroke-width=".61727"/><rect x="358.52" y="918.89" width="12.32" height="8.6922" fill="none" stroke="#000" stroke-width=".24468"/><g fill="#0b0b0b"><rect x="350.38" y="919.56" width="1" height="6.4347"/><rect x="347.9" y="919.56" width="1" height="6.4347"/><rect x="342.63" y="919.56" width="1" height="6.4347"/><rect x="324.52" y="919.56" width="1" height="6.4347"/><rect x="322.02" y="919.56" width="1" height="6.4347"/><rect x="329.54" y="919.56" width="1" height="6.4347"/><rect x="339.95" y="919.56" width="1" height="6.4347"/><rect x="337.09" y="919.56" width="1" height="6.4347"/><rect x="331.86" y="919.56" width="1" height="6.4347"/></g><g fill="#0b0b0b"><rect x="367.36" y="919.56" width="1" height="6.4347"/><rect x="364.88" y="919.56" width="1" height="6.4347"/><rect x="359.63" y="919.56" width="1" height="6.4347"/></g><rect x="318.59" y="918.92" width="35.756" height="12.539" fill="none" stroke="#000" stroke-width=".30604"/><g fill="#a7a36c"><rect x="513.89" y="931.15" width="1.3102" height="2.3584"/><rect x="510.98" y="931.15" width="1.3102" height="2.3584"/><rect x="506.54" y="931.15" width="1.3102" height="2.3584"/><rect x="503.43" y="931.15" width="1.3102" height="2.3584"/></g><rect x="318.08" y="918.68" width="54.083" height=".619" fill="#b1b2b4"/><rect x="429.61" y="922.74" width="19.959" height="3.0489" rx=".5" ry=".5"/><rect x="311.36" y="928.86" width="4.5875" height="28.974" rx=".5" ry=".5" fill="#691729"/><rect x="393.5" y="960.88" width="168.05" height="8.922" rx=".5" ry=".53741" fill="#010000"/><rect x="393.5" y="965.59" width="72.27" height=".965" fill="#7a7a7a"/><rect x="530.92" y="964.38" width="30.629" height="5.4273" rx=".5" ry=".5" fill="#7a7a7a"/><path d="m319.7 960.88c.1382 3.5939-3.5172 3.9096-5.7812 4.8691-.6831 1.2079-.8097 2.4412.166 4.053h72.875v-8.9218h-67.256z"/><rect x="522.94" y="950.19" width="18.728" height="6.0922" rx=".5" ry=".5" fill="none" stroke="#000" stroke-width=".25"/><path d="m520.95 937.87v-7.1528c13.555-.0726 25.824 9.2309 25.824 9.2309h-23.809c-.9608-.026-2.1976-.40865-2.0147-2.0782z" fill="#191919"/><g><path d="m62.834 912.99c-12.191-.29526-30.327 5.5533-40.139 6.7344 0 0-20.893.17377-21.857.86244-1.2396 1.1019-.6887 49.411-.6887 49.411h300.07s.8264-47.794-.6887-49.585c-.8264-1.1019-21.859-.68868-21.859-.68868-9.8121-1.1811-27.948-7.0296-40.139-6.7344-53.456-3.1143-116.83-2.2314-174.7 0z" fill="#b2b3b5"/><path d="m.5035 932.39c-.2789 0-.5035.223-.5035.5v31.367c0 .277.2246.5.5035.5h299.36c.2789 0 .5035-.223.5035-.5v-31.367c0-.277-.2246-.5-.5035-.5h-201.39z" fill="#9e2036"/><g fill="#7a7a7a"><rect x="202.39" y="917.22" width="10.704" height="12.992" rx="1.5105" ry="1.4348"/><rect x="183.02" y="917.52" width="10.704" height="12.992" rx="1.5105" ry="1.4348"/><rect x="163.65" y="917.22" width="10.704" height="12.992" rx="1.5105" ry="1.4348"/><rect x="144.27" y="917.22" width="10.704" height="12.992" rx="1.5105" ry="1.4348"/><rect x="124.9" y="917.22" width="10.704" height="12.992" rx="1.5105" ry="1.4348"/><rect x="105.53" y="917.22" width="10.704" height="12.992" rx="1.5105" ry="1.4348"/><rect x="86.163" y="917.22" width="10.704" height="12.992" rx="1.5105" ry="1.4348"/></g><g fill="#731025"><rect x="42.129" y="936.93" width="10.704" height="12.992" rx="1.5105" ry="1.4348"/><rect x="23.279" y="936.93" width="10.704" height="12.992" rx="1.5105" ry="1.4348"/><rect x="4.4284" y="936.93" width="10.704" height="12.992" rx="1.5105" ry="1.4348"/></g><g fill="#731025"><rect x="285.24" y="936.93" width="10.704" height="12.992" rx="1.5105" ry="1.4348"/><rect x="266.39" y="936.93" width="10.704" height="12.992" rx="1.5105" ry="1.4348"/><rect x="247.53" y="936.93" width="10.704" height="12.992" rx="1.5105" ry="1.4348"/></g><g fill="#731025"><rect x="117.91" y="949.11" width="10.704" height="12.992" rx="1.5105" ry="1.4348"/><rect x="172.67" y="949.11" width="10.704" height="12.992" rx="1.5105" ry="1.4348"/><rect x="154.42" y="949.11" width="10.704" height="12.992" rx="1.5105" ry="1.4348"/><rect x="136.17" y="949.11" width="10.704" height="12.992" rx="1.5105" ry="1.4348"/></g><path d="m104.9 970 .1616-22.327-1.1564-1.65 3.4845-.825v-1.739h-25.806v1.739l3.6095.825-1.6245 1.65-.048 22.327z" fill="#979798"/><rect x="96.022" y="948.51" width="6.4987" height="15.288" rx="1.5573" ry="1.5" fill="#9e2036"/><rect x="86.191" y="948.51" width="6.4987" height="15.288" rx="1.5573" ry="1.5" fill="#9e2036"/><path d="m217.87 970 .1616-22.327-1.1564-1.65 3.4845-.825v-1.739h-25.806v1.739l3.6095.825-1.6245 1.65-.048 22.327z" fill="#979798"/><rect x="208.99" y="948.51" width="6.4987" height="15.288" rx="1.5573" ry="1.5" fill="#9e2036"/><rect x="199.16" y="948.51" width="6.4987" height="15.288" rx="1.5573" ry="1.5" fill="#9e2036"/><path d="m300.17 966 5.923-4e-4v2.1869c-1.7079.044-2.5495.2323-2.9633 1.8135h-2.9597z"/></g></g><g id="trees" fill="#067d61"><path d="m711.4 967.64c1.0637-3.8266-.81307-6.5998.39377-10.803 2.0328-5.8917 4.926-8.1957 6.1531-11.866 1.5856-3.9965-.66794-7.1817.0922-12.233 1.6749-6.6088 3.7145-11.215 9.7719-16.62l3.1179-13.296c2.6645-11.619 9.4726-13.944 13.154-14.104 4.1619-.31977 11.268 3.8901 13.565 14.104 0 0 .90693 7.6977 2.3476 13.296 4.7117 4.4195 7.7257 11.858 8.1789 16.161 1.5864 5.8883-.73247 9.9847 1.3942 12.693 1.7734 2.8793 5.6896 5.6728 8.1711 11.683 1.6956 5.8096 1.6428 10.986 1.6428 10.986 5.0655 4.58 13.008 17.097-2.7924 24.992-4.3954.36604-62.885.072-62.885.072-3.8126-.73824-19.229-10.786-2.3051-25.064z"/><path d="m664.27 962.31c.67452-2.4266-.5156-4.1851.24971-6.8506 1.289-3.736 3.1237-5.1971 3.9018-7.5247 1.0054-2.5343-.42355-4.5541.0583-7.7575 1.0621-4.1908 2.3554-7.1116 6.1966-10.539l1.9772-8.4316c1.6897-7.368 6.0068-8.842 8.3414-8.9434 2.6391-.20268 7.145 2.4668 8.6019 8.9434 0 0 .5751 4.8813 1.4887 8.4316 2.9878 2.8026 4.899 7.5192 5.1864 10.248 1.006 3.7339-.46448 6.3315.88409 8.049 1.1246 1.8259 3.6079 3.5973 5.1816 7.4088 1.0752 3.684 1.0417 6.9667 1.0417 6.9667 3.2122 2.9042 8.2488 10.842-1.7708 15.848-2.7872.23211-39.877.0457-39.877.0457-2.4177-.46814-12.193-6.8396-1.4617-15.894z"/><path d="m500.6 960.54c.84808-3.051-.64831-5.262.31395-8.6135 1.6207-4.6974 3.9275-6.5344 4.9059-9.461 1.2641-3.1864-.53256-5.726.0733-9.7537 1.3354-5.2692 2.9615-8.9416 7.7911-13.252l2.486-10.601c2.1245-9.2639 7.5525-11.117 10.488-11.245 3.3182-.25491 8.9837 3.1016 10.815 11.245 0 0 .7231 6.1374 1.8718 10.601 3.7566 3.5237 6.1597 9.4541 6.5211 12.885 1.2648 4.6948-.58399 7.9608 1.1116 10.12 1.414 2.2957 4.5364 4.523 6.5149 9.3152 1.3519 4.632 1.3098 8.7594 1.3098 8.7594 4.0388 3.6516 10.371 13.632-2.2264 19.926-3.5045.29184-50.139.0574-50.139.0574-3.0398-.58859-15.331-8.5996-1.8379-19.984z"/><path d="m456.95 973.86c.58389-2.1006-.44635-3.6229.21616-5.9304 1.1159-3.2342 2.7041-4.499 3.3777-6.5139.87036-2.1938-.36666-3.9424.0506-6.7154.91944-3.6278 2.039-6.1563 5.3642-9.1236l1.7116-7.2989c1.4627-6.3782 5.1999-7.6542 7.2209-7.742 2.2846-.1757 6.1852 2.1354 7.4464 7.742 0 0 .49784 4.2256 1.2887 7.2989 2.5864 2.4261 4.241 6.5091 4.4898 8.8712.87087 3.2324-.40206 5.481.76533 6.9678.97354 1.5806 3.1233 3.114 4.4855 6.4135.93078 3.1891.90178 6.0308.90178 6.0308 2.7807 2.5141 7.1407 9.3855-1.5329 13.719-2.4129.20086-34.52.0395-34.52.0395-2.0929-.40525-10.555-5.9208-1.2654-13.759z"/><path d="m328.62 976.45c.56562-2.0348-.43238-3.5095.20941-5.7448 1.0809-3.133 2.6195-4.3582 3.272-6.3101.84313-2.1252-.35517-3.819.0489-6.5053.89066-3.5143 1.9752-5.9637 5.1963-8.8382l1.658-7.0705c1.4169-6.1786 5.0372-7.4147 6.995-7.4998 2.2131-.17022 5.9917 2.0686 7.2134 7.4998 0 0 .48227 4.0934 1.2484 7.0705 2.5055 2.3502 4.1083 6.3054 4.3493 8.5936.84362 3.1312-.38946 5.3095.74139 6.7498.94307 1.5311 3.0256 3.0166 4.3452 6.2128.90165 3.0893.87357 5.8421.87357 5.8421 2.6936 2.4355 6.9173 9.0918-1.4849 13.29-2.3374.19457-33.44.0384-33.44.0384-2.0274-.39256-10.225-5.7355-1.2258-13.328z"/><path d="m281.74 966.15c.61929-2.2279-.47339-3.8424.22927-6.2897 1.1835-3.4302 2.868-4.7716 3.5823-6.9086.9231-2.3268-.38887-4.1812.0536-7.1224.97516-3.8477 2.1626-6.5293 5.6892-9.6765l1.8153-7.7412c1.5513-6.7647 5.515-8.118 7.6585-8.2112 2.4231-.18625 6.56 2.2648 7.8977 8.2112 0 0 .52801 4.4816 1.3668 7.7412 2.7431 2.5731 4.4979 6.9035 4.7618 9.4087.92359 3.4282-.42644 5.8131.8117 7.39 1.0325 1.6763 3.3125 3.3028 4.7573 6.8021.98718 3.3824.95643 6.3963.95643 6.3963 2.9492 2.6665 7.5734 9.9542-1.6257 14.551-2.559.2131-36.612.042-36.612.042-2.2197-.4298-11.195-6.2795-1.342-14.592z"/><path d="m154.5 979.66c.70892-2.4206-.5419-4.1747.26244-6.8336 1.3548-3.7268 3.283-5.1842 4.1008-7.506 1.0567-2.528-.44516-4.5428.0614-7.7382 1.1163-4.1804 2.4756-7.094 6.5127-10.513l2.078-8.4106c1.7759-7.3497 6.3132-8.8201 8.7669-8.9212 2.7738-.20228 7.5095 2.4606 9.0407 8.9212 0 0 .60445 4.8692 1.5646 8.4106 3.1402 2.7956 5.1489 7.5005 5.451 10.222 1.0573 3.7246-.48815 6.3158.9292 8.029 1.182 1.8213 3.792 3.5884 5.4458 7.3904 1.1301 3.6749 1.0949 6.9494 1.0949 6.9494 3.376 2.897 8.6696 10.815-1.861 15.809-2.9294.23153-41.911.0457-41.911.0457-2.541-.46699-12.815-6.8226-1.5363-15.854z"/><path d="m109.14 962.15c.67802-2.4392-.51831-4.2069.251-6.8864 1.2958-3.7556 3.14-5.2242 3.9222-7.5639 1.0107-2.5475-.42577-4.5779.0587-7.798 1.0677-4.2127 2.3677-7.1487 6.2289-10.594l1.9875-8.4756c1.6985-7.4064 6.0382-8.8882 8.385-8.9901 2.6529-.20382 7.1823 2.4797 8.6468 8.9901 0 0 .57811 4.9068 1.4964 8.4756 3.0034 2.8172 4.9246 7.5584 5.2135 10.301 1.0112 3.7534-.46688 6.3646.88872 8.091 1.1305 1.8354 3.6268 3.616 5.2086 7.4474 1.0808 3.7032 1.0472 7.003 1.0472 7.003 3.2289 2.9194 8.2919 10.898-1.7799 15.931-2.8018.23333-40.085.0458-40.085.0458-2.4303-.47057-12.257-6.8752-1.4693-15.977z"/><path d="m208.45 957.13c1.0637-3.8266-.81311-6.5998.39377-10.803 2.0328-5.8917 4.926-8.1957 6.1531-11.866 1.5855-3.9965-.66794-7.1817.0921-12.233 1.675-6.6088 3.7145-11.215 9.7719-16.62l3.1179-13.296c2.6646-11.619 9.4726-13.944 13.154-14.104 4.1618-.31977 11.268 3.8901 13.565 14.104 0 0 .90694 7.6977 2.3476 13.296 4.7116 4.4195 7.7257 11.858 8.1789 16.161 1.5864 5.8883-.73245 9.9846 1.3942 12.693 1.7734 2.8793 5.6896 5.6728 8.1712 11.683 1.6956 5.8096 1.6428 10.986 1.6428 10.986 5.0655 4.58 13.008 17.097-2.7924 24.992-4.3955.36605-62.885.072-62.885.072-3.8126-.73824-19.229-10.786-2.3051-25.064z"/><path d="m865.44 974.67c.61932-2.2279-.4734-3.8424.22926-6.2897 1.1835-3.4302 2.868-4.7716 3.5824-6.9086.92309-2.3268-.38888-4.1812.0537-7.1224.97515-3.8477 2.1625-6.5293 5.6892-9.6765l1.8152-7.7412c1.5513-6.7647 5.515-8.118 7.6585-8.2112 2.4231-.18625 6.56 2.2648 7.8977 8.2112 0 0 .52804 4.4816 1.3668 7.7412 2.7431 2.5731 4.4979 6.9035 4.7618 9.4087.92358 3.4282-.42644 5.8131.81166 7.39 1.0325 1.6763 3.3125 3.3028 4.7573 6.8021.98714 3.3824.95641 6.3963.95641 6.3963 2.9492 2.6665 7.5734 9.9542-1.6258 14.551-2.5591.21309-36.612.042-36.612.042-2.2198-.42979-11.195-6.2795-1.3421-14.592z"/><path d="m1171.3 961.82c.8481-3.051-.6483-5.262.314-8.6135 1.6207-4.6974 3.9275-6.5344 4.9058-9.461 1.2642-3.1864-.5325-5.726.073-9.7537 1.3354-5.2692 2.9616-8.9416 7.7912-13.252l2.4859-10.601c2.1245-9.2639 7.5525-11.117 10.488-11.245 3.3183-.25491 8.9837 3.1016 10.816 11.245 0 0 .7231 6.1374 1.8717 10.601 3.7567 3.5237 6.1598 9.4541 6.5211 12.885 1.2649 4.6948-.5839 7.9608 1.1116 10.12 1.414 2.2957 4.5364 4.523 6.5149 9.3152 1.352 4.632 1.3098 8.7594 1.3098 8.7594 4.0388 3.6516 10.372 13.632-2.2264 19.926-3.5044.29184-50.139.0574-50.139.0574-3.0398-.58859-15.331-8.5996-1.8379-19.984z"/><path d="m1000.2 975.78c.5839-2.1006-.44644-3.6229.2162-5.9304 1.1157-3.2342 2.704-4.499 3.3775-6.5139.8704-2.1938-.3666-3.9423.051-6.7154.9194-3.6279 2.039-6.1563 5.3642-9.1237l1.7115-7.2989c1.4627-6.3782 5.1999-7.6542 7.221-7.742 2.2846-.1757 6.1852 2.1354 7.4464 7.742 0 0 .4978 4.2256 1.2887 7.2989 2.5864 2.4261 4.2409 6.5091 4.4897 8.8712.8709 3.2324-.402 5.481.7654 6.9678.9735 1.5806 3.1233 3.1141 4.4855 6.4135.9308 3.1892.9018 6.0309.9018 6.0309 2.7806 2.5141 7.1407 9.3855-1.5329 13.719-2.4129.2009-34.52.04-34.52.04-2.0929-.4053-10.555-5.9208-1.2653-13.759z"/><path d="m1091.5 953.04c1.0636-3.8266-.8131-6.5998.3937-10.803 2.0328-5.8917 4.9261-8.1957 6.1531-11.866 1.5855-3.9965-.6679-7.1817.092-12.233 1.6749-6.6088 3.7145-11.215 9.7719-16.62l3.1179-13.296c2.6646-11.619 9.4726-13.944 13.154-14.104 4.1618-.31977 11.268 3.8901 13.565 14.104 0 0 .907 7.6977 2.3476 13.296 4.7117 4.4195 7.7257 11.858 8.179 16.161 1.5864 5.8883-.7325 9.9846 1.3942 12.693 1.7734 2.8793 5.6896 5.6728 8.1711 11.683 1.6956 5.8096 1.6428 10.986 1.6428 10.986 5.0655 4.5799 13.008 17.097-2.7924 24.992-4.3954.366-62.885.072-62.885.072-3.8126-.7383-19.228-10.786-2.3051-25.064z"/><path d="m898.73 963.66c.70892-2.4206-.5419-4.1747.26244-6.8336 1.3548-3.7268 3.283-5.1842 4.1008-7.506 1.0567-2.528-.44516-4.5428.0614-7.7382 1.1163-4.1804 2.4756-7.094 6.5127-10.513l2.078-8.4106c1.7759-7.3497 6.3132-8.8201 8.7669-8.9212 2.7738-.20228 7.5095 2.4606 9.0407 8.9212 0 0 .60445 4.8692 1.5646 8.4106 3.1402 2.7956 5.1489 7.5005 5.451 10.222 1.0573 3.7246-.48815 6.3158.9292 8.029 1.182 1.8213 3.792 3.5884 5.4458 7.3904 1.1301 3.6749 1.0949 6.9494 1.0949 6.9494 3.376 2.897 8.6696 10.815-1.861 15.809-2.9294.2315-41.911.046-41.911.046-2.541-.467-12.815-6.8226-1.5363-15.854z"/><path d="m1292 956.48c1.0637-3.8266-.8131-6.5998.3938-10.803 2.0328-5.8917 4.926-8.1957 6.1531-11.866 1.5855-3.9965-.668-7.1817.092-12.233 1.675-6.6088 3.7145-11.215 9.7719-16.62l3.1179-13.296c2.6646-11.619 9.4726-13.944 13.154-14.104 4.1618-.31977 11.268 3.8901 13.565 14.104 0 0 .907 7.6977 2.3477 13.296 4.7116 4.4195 7.7256 11.858 8.1789 16.161 1.5864 5.8883-.7325 9.9846 1.3942 12.693 1.7734 2.8793 5.6896 5.6728 8.1711 11.683 1.6957 5.8096 1.6428 10.986 1.6428 10.986 5.0655 4.58 13.008 17.097-2.7924 24.992-4.3954.366-62.885.072-62.885.072-3.8126-.7382-19.228-10.786-2.3051-25.064z"/><path d="m5.1197 979.17c.58389-2.1006-.44635-3.6229.21616-5.9304 1.1159-3.2342 2.7041-4.499 3.3777-6.5139.87036-2.1938-.36667-3.9423.050558-6.7154.91943-3.6279 2.039-6.1563 5.3642-9.1237l1.7116-7.2989c1.4627-6.3782 5.1999-7.6542 7.2209-7.742 2.2846-.1757 6.1852 2.1354 7.4464 7.742 0 0 .49784 4.2256 1.2887 7.2989 2.5864 2.4261 4.2409 6.5091 4.4898 8.8712.87087 3.2324-.40206 5.481.76533 6.9678.97354 1.5806 3.1233 3.1141 4.4855 6.4135.93078 3.1892.90178 6.0309.90178 6.0309 2.7807 2.5141 7.1407 9.3855-1.5329 13.719-2.4129.2009-34.52.04-34.52.04-2.0929-.4053-10.555-5.9208-1.2654-13.759z"/></g><g id="treescopy" fill="#067d61"><path d="m2176.5 967.64c1.0637-3.8266-.813-6.5998.3938-10.803 2.0328-5.8917 4.926-8.1957 6.1531-11.866 1.5855-3.9965-.668-7.1817.092-12.233 1.6749-6.6088 3.7144-11.215 9.7719-16.62l3.1179-13.296c2.6645-11.619 9.4726-13.944 13.154-14.104 4.1619-.31977 11.268 3.8901 13.565 14.104 0 0 .9069 7.6977 2.3476 13.296 4.7116 4.4195 7.7257 11.858 8.1789 16.161 1.5864 5.8883-.7325 9.9847 1.3942 12.693 1.7735 2.8793 5.6896 5.6728 8.1712 11.683 1.6956 5.8096 1.6428 10.986 1.6428 10.986 5.0655 4.58 13.008 17.097-2.7924 24.992-4.3955.36604-62.885.072-62.885.072-3.8127-.73824-19.229-10.786-2.3051-25.064z"/><path d="m2129.4 962.31c.6745-2.4266-.5156-4.1851.2497-6.8506 1.289-3.736 3.1237-5.1971 3.9018-7.5247 1.0054-2.5343-.4236-4.5541.058-7.7575 1.0621-4.1908 2.3554-7.1116 6.1965-10.539l1.9772-8.4316c1.6897-7.368 6.0068-8.842 8.3414-8.9434 2.6391-.20268 7.1451 2.4668 8.602 8.9434 0 0 .5751 4.8813 1.4886 8.4316 2.9878 2.8026 4.899 7.5192 5.1865 10.248 1.006 3.7339-.4645 6.3315.8841 8.049 1.1246 1.8259 3.6079 3.5973 5.1816 7.4088 1.0752 3.684 1.0417 6.9667 1.0417 6.9667 3.2121 2.9042 8.2488 10.842-1.7708 15.848-2.7872.23211-39.877.0457-39.877.0457-2.4176-.46814-12.193-6.8396-1.4617-15.894z"/><path d="m1965.7 960.54c.8481-3.051-.6483-5.262.3139-8.6135 1.6208-4.6974 3.9276-6.5344 4.9059-9.461 1.2642-3.1864-.5325-5.726.073-9.7537 1.3354-5.2692 2.9616-8.9416 7.7911-13.252l2.486-10.601c2.1245-9.2639 7.5525-11.117 10.488-11.245 3.3183-.25491 8.9837 3.1016 10.816 11.245 0 0 .7231 6.1374 1.8717 10.601 3.7567 3.5237 6.1597 9.4541 6.5211 12.885 1.2649 4.6948-.584 7.9608 1.1116 10.12 1.414 2.2957 4.5364 4.523 6.5149 9.3152 1.3519 4.632 1.3098 8.7594 1.3098 8.7594 4.0388 3.6516 10.372 13.632-2.2264 19.926-3.5045.29184-50.139.0574-50.139.0574-3.0398-.58859-15.331-8.5996-1.8379-19.984z"/><path d="m1922.1 973.86c.5839-2.1006-.4463-3.6229.2162-5.9304 1.1158-3.2342 2.7041-4.499 3.3776-6.5139.8704-2.1938-.3666-3.9424.051-6.7154.9195-3.6278 2.0391-6.1563 5.3642-9.1236l1.7116-7.2989c1.4627-6.3782 5.1999-7.6542 7.2209-7.742 2.2846-.1757 6.1852 2.1354 7.4464 7.742 0 0 .4979 4.2256 1.2887 7.2989 2.5865 2.4261 4.241 6.5091 4.4898 8.8712.8709 3.2324-.4021 5.481.7653 6.9678.9736 1.5806 3.1233 3.114 4.4855 6.4135.9308 3.1891.9018 6.0308.9018 6.0308 2.7807 2.5141 7.1408 9.3855-1.5329 13.719-2.4128.20086-34.52.0395-34.52.0395-2.0929-.40525-10.555-5.9208-1.2654-13.759z"/><path d="m1793.8 976.45c.5656-2.0348-.4324-3.5095.2094-5.7448 1.0809-3.133 2.6195-4.3582 3.2719-6.3101.8431-2.1252-.3551-3.819.049-6.5053.8907-3.5143 1.9752-5.9637 5.1964-8.8382l1.658-7.0705c1.4169-6.1786 5.0371-7.4147 6.9949-7.4998 2.2132-.17022 5.9917 2.0686 7.2135 7.4998 0 0 .4822 4.0934 1.2483 7.0705 2.5055 2.3502 4.1083 6.3054 4.3493 8.5936.8436 3.1312-.3895 5.3095.7414 6.7498.9431 1.5311 3.0255 3.0166 4.3452 6.2128.9016 3.0893.8735 5.8421.8735 5.8421 2.6937 2.4355 6.9173 9.0918-1.4849 13.29-2.3373.19457-33.44.0384-33.44.0384-2.0274-.39256-10.225-5.7355-1.2258-13.328z"/><path d="m1746.9 966.15c.6192-2.2279-.4734-3.8424.2292-6.2897 1.1835-3.4302 2.868-4.7716 3.5824-6.9086.9231-2.3268-.3889-4.1812.054-7.1224.9751-3.8477 2.1625-6.5293 5.6892-9.6765l1.8153-7.7412c1.5513-6.7647 5.515-8.118 7.6584-8.2112 2.4231-.18625 6.5601 2.2648 7.8977 8.2112 0 0 .528 4.4816 1.3668 7.7412 2.7431 2.5731 4.4979 6.9035 4.7618 9.4087.9236 3.4282-.4265 5.8131.8117 7.39 1.0325 1.6763 3.3125 3.3028 4.7573 6.8021.9872 3.3824.9564 6.3963.9564 6.3963 2.9492 2.6665 7.5734 9.9542-1.6257 14.551-2.5591.2131-36.612.042-36.612.042-2.2198-.4298-11.195-6.2795-1.3421-14.592z"/><path d="m1619.6 979.66c.7089-2.4206-.5419-4.1747.2624-6.8336 1.3548-3.7268 3.2831-5.1842 4.1009-7.506 1.0567-2.528-.4452-4.5428.061-7.7382 1.1163-4.1804 2.4756-7.094 6.5126-10.513l2.078-8.4106c1.7759-7.3497 6.3132-8.8201 8.7669-8.9212 2.7738-.20228 7.5095 2.4606 9.0408 8.9212 0 0 .6044 4.8692 1.5646 8.4106 3.1401 2.7956 5.1489 7.5005 5.451 10.222 1.0573 3.7246-.4882 6.3158.9292 8.029 1.1819 1.8213 3.7919 3.5884 5.4458 7.3904 1.1301 3.6749 1.0948 6.9494 1.0948 6.9494 3.3761 2.897 8.6696 10.815-1.861 15.809-2.9294.23153-41.911.0457-41.911.0457-2.541-.46699-12.815-6.8226-1.5363-15.854z"/><path d="m1574.3 962.15c.678-2.4392-.5183-4.2069.251-6.8864 1.2958-3.7556 3.14-5.2242 3.9222-7.5639 1.0107-2.5475-.4258-4.5779.059-7.798 1.0676-4.2127 2.3677-7.1487 6.2289-10.594l1.9875-8.4756c1.6985-7.4064 6.0381-8.8882 8.3849-8.9901 2.653-.20382 7.1824 2.4797 8.6469 8.9901 0 0 .5781 4.9068 1.4964 8.4756 3.0034 2.8172 4.9246 7.5584 5.2135 10.301 1.0113 3.7534-.4668 6.3646.8888 8.091 1.1304 1.8354 3.6267 3.616 5.2085 7.4474 1.0809 3.7032 1.0472 7.003 1.0472 7.003 3.2289 2.9194 8.2919 10.898-1.78 15.931-2.8018.23333-40.085.0458-40.085.0458-2.4303-.47057-12.257-6.8752-1.4693-15.977z"/><path d="m1673.6 957.13c1.0636-3.8266-.8132-6.5998.3937-10.803 2.0328-5.8917 4.926-8.1957 6.1531-11.866 1.5855-3.9965-.668-7.1817.092-12.233 1.6749-6.6088 3.7145-11.215 9.7719-16.62l3.1179-13.296c2.6646-11.619 9.4726-13.944 13.154-14.104 4.1618-.31977 11.268 3.8901 13.565 14.104 0 0 .907 7.6977 2.3476 13.296 4.7117 4.4195 7.7257 11.858 8.1789 16.161 1.5865 5.8883-.7324 9.9846 1.3943 12.693 1.7734 2.8793 5.6896 5.6728 8.1711 11.683 1.6956 5.8096 1.6428 10.986 1.6428 10.986 5.0655 4.58 13.008 17.097-2.7924 24.992-4.3955.36605-62.885.072-62.885.072-3.8126-.73824-19.228-10.786-2.3051-25.064z"/><path d="m2330.6 974.67c.6193-2.2279-.4734-3.8424.2292-6.2897 1.1835-3.4302 2.868-4.7716 3.5824-6.9086.9231-2.3268-.3889-4.1812.054-7.1224.9751-3.8477 2.1625-6.5293 5.6892-9.6765l1.8153-7.7412c1.5513-6.7647 5.515-8.118 7.6584-8.2112 2.4231-.18625 6.5601 2.2648 7.8977 8.2112 0 0 .528 4.4816 1.3668 7.7412 2.7431 2.5731 4.4979 6.9035 4.7618 9.4087.9236 3.4282-.4264 5.8131.8117 7.39 1.0325 1.6763 3.3125 3.3028 4.7573 6.8021.9871 3.3824.9564 6.3963.9564 6.3963 2.9492 2.6665 7.5734 9.9542-1.6257 14.551-2.5591.21309-36.612.042-36.612.042-2.2198-.42979-11.195-6.2795-1.3421-14.592z"/><path d="m2636.4 961.82c.8481-3.051-.6483-5.262.314-8.6135 1.6207-4.6974 3.9275-6.5344 4.9058-9.461 1.2642-3.1864-.5325-5.726.073-9.7537 1.3354-5.2692 2.9616-8.9416 7.7912-13.252l2.4859-10.601c2.1245-9.2639 7.5525-11.117 10.488-11.245 3.3183-.25491 8.9837 3.1016 10.816 11.245 0 0 .7231 6.1374 1.8717 10.601 3.7567 3.5237 6.1598 9.4541 6.5211 12.885 1.2649 4.6948-.5839 7.9608 1.1116 10.12 1.414 2.2957 4.5364 4.523 6.5149 9.3152 1.352 4.632 1.3098 8.7594 1.3098 8.7594 4.0388 3.6516 10.372 13.632-2.2264 19.926-3.5044.29184-50.139.0574-50.139.0574-3.0398-.58859-15.331-8.5996-1.8379-19.984z"/><path d="m2465.4 975.78c.5839-2.1006-.4464-3.6229.2162-5.9304 1.1157-3.2342 2.704-4.499 3.3775-6.5139.8704-2.1938-.3666-3.9423.051-6.7154.9194-3.6279 2.039-6.1563 5.3642-9.1237l1.7115-7.2989c1.4627-6.3782 5.1999-7.6542 7.221-7.742 2.2846-.1757 6.1852 2.1354 7.4464 7.742 0 0 .4978 4.2256 1.2887 7.2989 2.5864 2.4261 4.2409 6.5091 4.4897 8.8712.8709 3.2324-.402 5.481.7654 6.9678.9735 1.5806 3.1233 3.1141 4.4855 6.4135.9308 3.1892.9018 6.0309.9018 6.0309 2.7806 2.5141 7.1407 9.3855-1.5329 13.719-2.4129.2009-34.52.04-34.52.04-2.0929-.4053-10.555-5.9208-1.2653-13.759z"/><path d="m2556.6 953.04c1.0636-3.8266-.8131-6.5998.3937-10.803 2.0328-5.8917 4.9261-8.1957 6.1531-11.866 1.5855-3.9965-.6679-7.1817.092-12.233 1.6749-6.6088 3.7145-11.215 9.7719-16.62l3.1179-13.296c2.6646-11.619 9.4726-13.944 13.154-14.104 4.1618-.31977 11.268 3.8901 13.565 14.104 0 0 .907 7.6977 2.3476 13.296 4.7117 4.4195 7.7257 11.858 8.179 16.161 1.5864 5.8883-.7325 9.9846 1.3942 12.693 1.7734 2.8793 5.6896 5.6728 8.1711 11.683 1.6956 5.8096 1.6428 10.986 1.6428 10.986 5.0655 4.5799 13.008 17.097-2.7924 24.992-4.3954.366-62.885.072-62.885.072-3.8126-.7383-19.228-10.786-2.3051-25.064z"/><path d="m2363.9 963.66c.7089-2.4206-.5419-4.1747.2624-6.8336 1.3548-3.7268 3.2831-5.1842 4.1009-7.506 1.0567-2.528-.4452-4.5428.061-7.7382 1.1163-4.1804 2.4756-7.094 6.5126-10.513l2.0781-8.4106c1.7758-7.3497 6.3131-8.8201 8.7669-8.9212 2.7737-.20228 7.5095 2.4606 9.0407 8.9212 0 0 .6044 4.8692 1.5646 8.4106 3.1401 2.7956 5.1489 7.5005 5.451 10.222 1.0573 3.7246-.4882 6.3158.9292 8.029 1.1819 1.8213 3.7919 3.5884 5.4458 7.3904 1.1301 3.6749 1.0949 6.9494 1.0949 6.9494 3.376 2.897 8.6695 10.815-1.8611 15.809-2.9294.2315-41.911.046-41.911.046-2.541-.467-12.815-6.8226-1.5363-15.854z"/><path d="m2757.1 956.48c1.0637-3.8266-.8131-6.5998.3938-10.803 2.0328-5.8917 4.926-8.1957 6.1531-11.866 1.5855-3.9965-.668-7.1817.092-12.233 1.675-6.6088 3.7145-11.215 9.7719-16.62l3.1179-13.296c2.6646-11.619 9.4726-13.944 13.154-14.104 4.1618-.31977 11.268 3.8901 13.565 14.104 0 0 .907 7.6977 2.3477 13.296 4.7116 4.4195 7.7256 11.858 8.1789 16.161 1.5864 5.8883-.7325 9.9846 1.3942 12.693 1.7734 2.8793 5.6896 5.6728 8.1711 11.683 1.6957 5.8096 1.6428 10.986 1.6428 10.986 5.0655 4.58 13.008 17.097-2.7924 24.992-4.3954.366-62.885.072-62.885.072-3.8126-.7382-19.228-10.786-2.3051-25.064z"/><path d="m1470.3 979.17c.5839-2.1006-.4464-3.6229.2162-5.9304 1.1158-3.2342 2.7041-4.499 3.3776-6.5139.8704-2.1938-.3666-3.9423.051-6.7154.9194-3.6279 2.039-6.1563 5.3642-9.1237l1.7115-7.2989c1.4627-6.3782 5.1999-7.6542 7.221-7.742 2.2846-.1757 6.1852 2.1354 7.4464 7.742 0 0 .4978 4.2256 1.2887 7.2989 2.5864 2.4261 4.2409 6.5091 4.4897 8.8712.8709 3.2324-.402 5.481.7654 6.9678.9735 1.5806 3.1233 3.1141 4.4855 6.4135.9308 3.1892.9018 6.0309.9018 6.0309 2.7806 2.5141 7.1407 9.3855-1.5329 13.719-2.4129.2009-34.52.04-34.52.04-2.093-.4053-10.555-5.9208-1.2654-13.759z"/></g><g id="ticket"><path id="ticketbg" d="m620.31 246.86h424.53c5.553 0 10.024 4.4843 10.024 10.054v76.262s-5.1325.32994-5.283 6.5c-.1505 6.6215 5.283 6.5 5.283 6.5l-4e-4 277.91c0 5.5702-4.4706 10.054-10.024 10.054h-424.53c-5.5531 0-10.022-4.4843-10.024-10.054l-.0761-277.91s5.4291-.59921 5.3591-6.5c-.18549-6.3068-5.283-6.5-5.283-6.5v-76.262c0-5.5701 4.4705-10.054 10.024-10.054z" fill="#fcfcfc" stroke-width="3.0117"/><rect x="634.41" y="338.83" width="396.25" height="1.8496" fill="#d0d1d4"/><text id="servicename" x="635.5517" y="538.40778" fill="#505055" font-size="18.667px" style="line-height:1.25">BaltimoreLink</text><text id="origindest" x="634.93451" y="630.1955" display="none" fill="#26262e" font-size="37.333px" style="line-height:1.25"><tspan id="origin">BAL</tspan><tspan dx="0 0" dy="-3" fill="#8b8d99" font-size="42px"> </tspan><tspan id="destination" dy="3">BWE</tspan></text><text id="zone" x="636.73499" y="564.71356" display="none" fill="#26262e" font-family="sans-serif" font-size="28px" style="line-height:1.25;white-space:pre">Zone 3</text><g><rect id="codebg" x="936.7" y="357.84" width="92.23" height="73.365" rx="10" ry="10" fill="#9d2236"/><text id="codetext" x="957.1875" y="408.82184" fill="#f8eaee" font-size="42.667px" style="line-height:1.25">S5</text></g><text id="serviceid" x="632.9671" y="475.22879" fill="#26262e" font-size="133.33px" style="line-height:1.25">F</text><text id="tickettime" x="636.0462" y="302.55289" fill="#26262d" font-size="28px" style="line-height:1.25">12:00:00 AM</text><text id="ticketdate" x="904.1543" y="303.68265" fill="#26262d" font-size="28px" style="line-height:1.25">01/01/23</text><path d="m949.12 536.29h-5.6152v-11.23h11.23v11.23zm0-1.6043h4.0108v-8.0217h-8.0217v8.0217zm0-1.6043h-2.4065v-4.813h4.813v4.813zm8.8238 3.2087h-1.6043v-3.2087h1.6043v-1.6043h1.6043v-1.6043h-3.2087v-3.2087h1.6043v-1.6043h-1.6043v-1.6043h-3.2087v-1.6043h3.2087v-1.6044h-4.813v-1.6043h-1.6043v-1.6043h-1.6043v1.6043h-1.6043v1.6043h3.2087v1.6044h-1.6043v1.6043h-4.813v-1.6043h1.6043v-3.2087h-1.6043v-3.2087h1.6043v-1.6043h1.6043v1.6043h-1.6043v1.6043h3.2087v-3.2087h3.2087v3.2087h1.6043v-1.6043h1.6043v1.6043h1.6043v3.2087h3.2087v1.6044h-3.2087v1.6043h1.6043v1.6043h1.6043v1.6043h1.6043v-1.6043h1.6043v-1.6043h3.2087v-1.6043h1.6043v1.6043h1.6043v-1.6043h1.6043v-1.6044h1.6043v-1.6043h-3.2087v1.6043h-3.2086v-3.2087h-3.2087v1.6043h1.6043v3.2087h-1.6043v-1.6044h-1.6043v-3.2087h-1.6043v1.6043h-1.6043v-3.2087h3.2087v1.6043h1.6043v-1.6043h1.6043v-1.6043h-1.6043v-1.6043h-1.6043v-1.6043h-1.6043v1.6043h-1.6043v1.6043h-4.813v-1.6043h3.2087v-1.6043h-3.2087v-1.6043h-3.2087v3.2087h-1.6043v-1.6043h-3.2087v1.6043h-1.6043v-6.4173h1.6043v1.6043h3.2087v-1.6043h1.6043v1.6043h3.2087v-1.6043h-1.6043v-1.6043h-1.6043v-1.6043h1.6043v-1.6043h-1.6043v-3.2087h-1.6043v6.4173h-3.2087v-1.6043h-1.6043v-4.813h1.6043v-4.813h1.6043v-3.2087h-1.6043v1.6043h-1.6043v-1.6043h1.6043v-1.6043h-1.6043v-3.2087h1.6043v-1.6043h-1.6043v-12.835h3.2087v1.6043h3.2087v-1.6043h4.813v1.6043h-3.2087v1.6043h4.813v-1.6043h1.6043v-1.6043h3.2087v-1.6043h-1.6043v-1.6043h-1.6043v1.6043h-1.6043v-3.2087h3.2087v1.6043h1.6043v-3.2087h1.6043v-3.2087h-1.6043v1.6043h-1.6043v-3.2087h-1.6043v4.813h-1.6043v-6.4173h3.2087v1.6043h1.6043v-1.6043h3.2087v1.6043h3.2086v-1.6043h1.6043v3.2087h-3.2086v1.6043h-1.6043v1.6043h-1.6043v3.2087h1.6043v-1.6043h1.6043v-1.6043h1.6043v-1.6043h4.813v1.6043h1.6043v1.6043h1.6043v1.6043h1.6043v-1.6043h1.6043v-1.6043h-1.6043v-1.6043h-1.6043v-4.813h1.6043v3.2087h1.6043v-1.6043h1.6043v-1.6043h1.6044v1.6043h1.6043v1.6043h1.6044v3.2087h1.6043v4.813h1.6043v-6.4174h3.2087v1.6043h1.6043v-3.2087h1.6043v-1.6043h-4.813v1.6043h-3.2087v-1.6043h-1.6043v-1.6043h3.2086v1.6043h1.6044v-1.6043h8.0216v1.6043h1.6043v-1.6043h3.2087v1.6043h-1.6043v1.6043h1.6043v1.6043h1.6044v1.6043h-1.6044v1.6043h3.2087v3.2087h1.6043v-1.6043h1.6043v4.813h3.2087v-1.6043h1.6044v1.6043h1.6043v-1.6043h6.4174v1.6043h-1.6044v1.6043h-1.6043v3.2087h1.6043v3.2087h-1.6043v1.6043h1.6043v1.6043h1.6044v1.6043h-6.4174v3.2087h3.2087v-1.6043h1.6043v1.6043h-1.6043v1.6043h3.2087v1.6043h-1.6044v1.6043h-1.6043v-1.6043h-6.4174v1.6043h4.8131v1.6043h3.2086v1.6043h1.6044v1.6043h-3.2087v1.6043h-1.6043v1.6043h3.2086v1.6043h-1.6043v1.6043h1.6043v1.6043h-1.6043v1.6043h1.6043v1.6043h-1.6043v3.2087h-3.2087v1.6043h4.813v1.6043h1.6044v1.6043h-4.813v-1.6043h-1.6044v-1.6043h-1.6043v3.2087h1.6043v1.6043h-1.6043v-1.6043h-1.6044v1.6043h-1.6043v1.6043h3.2087v1.6044h1.6043v1.6043h1.6044v-3.2087h1.6043v3.2087h1.6043v1.6043h-4.813v3.2087h1.6044v-1.6043h1.6043v1.6043h1.6043v1.6043h-1.6043v1.6043h3.2087v1.6043h-1.6044v1.6043h1.6044v1.6043h-4.813v-3.2087h1.6043v-1.6043h-3.2087v-1.6043h-3.2087v1.6043h1.6044v1.6043h1.6043v3.2087h-1.6043v-1.6043h-1.6044v-3.2087h-1.6043v1.6043h-1.6044v1.6043h1.6044v1.6043h-6.4173v-1.6043h-1.6044v1.6043h-3.2087v-3.2087h-1.6043v-1.6043h-1.6043v-1.6043h-1.6044v-6.4173h-1.6043v8.0217h1.6043v1.6043h1.6044v3.2087h-1.6044v-1.6043h-1.6043v1.6043h-3.2086v-3.2087h-1.6044v-1.6043h1.6044v-3.2087h1.6043v-1.6043h-3.2087v3.2087h-8.0217v1.6043h-3.2087v1.6043h-3.2087v-1.6043h-1.6043v-1.6043h-1.6043v-3.2087h-1.6043v-1.6043h-1.6043v3.2087h1.6043v1.6043h-1.6043v1.6043h-4.813v-1.6043h-1.6043v3.2087h1.6043v3.2087h-1.6043v-3.2087h-3.2087v1.6043h1.6043v1.6043zm34.493-1.6043h.80217v-1.6043h-1.6043v-1.6043h-1.6043v1.6043h1.6043v1.6043zm14.439 0h.8021v-3.2087h-1.6043v3.2087zm-5.6152-1.6043h1.6043v-1.6043h1.6044v-3.2087h1.6043v1.6043h1.6043v-3.2087h-3.2086v-1.6043h-1.6044v6.4174h-1.6043v-1.6043h-1.6044v-8.0216h1.6044v-1.6044h3.2087v1.6044h-1.6044v1.6043h1.6044v-1.6043h1.6043v1.6043h1.6043v-1.6043h1.6043v-1.6044h-4.8129v-3.2087h1.6043v1.6043h1.6043v-1.6043h1.6043v1.6043h1.6044v-1.6043h-1.6044v-1.6043h1.6044v-1.6043h1.6043v-1.6043h1.6044v-1.6043h3.2087v-4.813h-3.2087v3.2087h-1.6044v3.2087h-3.2087v-4.813h3.2087v-1.6043h-3.2087v1.6043h-1.6043v-1.6043h-1.6043v1.6043h-1.6043v1.6043h1.6043v1.6043h1.6043v1.6043h1.6043v1.6043h-4.8129v-3.2087h-1.6044v1.6043h-1.6043v-3.2087h-1.6044v1.6043h-1.6043v3.2087h-3.2087v1.6043h-3.2086v1.6043h-1.6043v-4.813h1.6043v-1.6043h-1.6043v-1.6043h3.2086v3.2087h1.6043v-6.4173h-1.6043v1.6043h-3.2086v-6.4173h-1.6044v-1.6043h1.6044v-4.813h-1.6044v3.2087h-1.6043v4.813h1.6043v4.813h-1.6043v-1.6043h-3.2087v1.6043h-1.6043v-1.6043h-1.6044v-1.6043h4.8131v-3.2087h-1.6044v1.6043h-4.813v-3.2087h-4.813v-1.6043h-4.813v-1.6043h4.813v-1.6043h1.6043v-3.2087h1.6043v1.6043h3.2087v-1.6043h-1.6043v-3.2087h-1.6043v-1.6043h-1.6043v-1.6043h1.6043v-1.6043h1.6043v-3.2087h-3.2087v4.813h-3.2087v-1.6043h1.6043v-3.2087h-1.6043v-1.6043h1.6043v-1.6043h-1.6043v1.6043h-1.6043v-1.6043h-1.6043v-1.6043h3.2087v-1.6043h1.6043v1.6043h1.6043v-3.2087h3.2087v-4.813h-1.6043v3.2087h-1.6043v1.6043h-6.4174v-1.6043h3.2087v-4.813h-1.6043v3.2087h-1.6043v-3.2087h-1.6043v6.4174h-1.6043v-1.6043h-1.6043v-1.6043h1.6043v-1.6043h-1.6043v1.6043h-1.6043v-1.6043h-1.6043v1.6043h1.6043v1.6043h-1.6043v1.6043h-3.2087v1.6043h-1.6043v1.6043h-3.2087v1.6043h-1.6043v-1.6043h-1.6043v-1.6043h-1.6043v1.6043h1.6043v3.2087h-1.6043v3.2087h-3.2087v1.6043h3.2087v3.2087h-3.2087v1.6043h1.6043v1.6043h3.2087v1.6043h-1.6043v1.6043h-1.6043v3.2087h1.6043v-1.6043h1.6043v-3.2087h3.2087v1.6043h1.6043v-1.6043h1.6043v-1.6043h4.813v-1.6043h-1.6043v-1.6043h3.2087v-1.6043h1.6043v-1.6043h-1.6043v1.6043h-6.4174v-1.6043h-1.6043v-1.6043h1.6043v-3.2087h3.2087v4.813h1.6043v-3.2087h1.6043v1.6043h1.6043v-3.2087h3.2086v3.2087h1.6043v-1.6043h1.6043v4.813h-1.6043v-1.6043h-1.6043v1.6043h-1.6043v1.6043h-1.6043v1.6043h1.6043v1.6043h1.6043v1.6043h4.813v-1.6043h1.6043v-3.2087h1.6043v1.6043h1.6043v1.6043h-1.6043v1.6043h-1.6043v3.2087h-1.6043v-1.6043h-3.2087v1.6043h-3.2086v1.6043h-1.6043v-1.6043h-1.6043v-1.6043h3.2087v-1.6043h-1.6043v-1.6043h-1.6043v3.2087h-1.6043v1.6043h-1.6043v-3.2087h-1.6043v3.2087h1.6043v3.2087h-1.6043v4.813h1.6043v3.2087h3.2087v-1.6043h-1.6043v-1.6043h1.6043v-1.6043h-1.6043v-3.2087h3.2087v1.6043h3.2086v3.2087h-1.6043v-1.6043h-1.6043v3.2087h3.2086v1.6043h-1.6043v1.6043h-3.2087v1.6043h1.6043v1.6043h1.6043v1.6043h-1.6043v1.6043h1.6043v1.6043h1.6043v1.6043h4.813v-1.6043h3.2087v1.6043h-1.6043v1.6043h1.6043v1.6043h3.2087v-4.813h1.6043v1.6043h3.2087v1.6043h-3.2087v3.2087h1.6044v-1.6044h1.6043v1.6044h1.6044v-1.6044h1.6043v-1.6043h1.6043v3.2087h-1.6043v1.6043h3.2087v-1.6043h1.6043v-4.813h1.6043v1.6043h1.6043v1.6043h-1.6043v1.6044h1.6043v-1.6044h3.2087v1.6044h-1.6043v1.6043h1.6043v8.0217h1.6043v1.6043zm-16.846-12.835h-.80216v-1.6043h1.6044v-1.6043h1.6043v-1.6043h-1.6043v-1.6043h-1.6044v-1.6043h-4.813v-1.6043h4.813v-1.6043h1.6044v-1.6043h1.6043v1.6043h1.6043v3.2087h-3.2086v1.6043h3.2086v3.2087h-1.6043v1.6043h-1.6043v1.6043zm0-8.0217h.80223v-1.6043h-1.6044v1.6043zm16.043 8.0217h-.80223v-3.2087h-4.813v-1.6043h3.2087v-1.6043h6.4174v1.6043h-1.6044v1.6043h-1.6043v3.2087zm-24.065-1.6043h-.80218v-1.6043h1.6043v1.6043zm1.6043-3.2087h-.80218v-1.6043h-1.6043v-3.2087h-6.4174v1.6043h3.2087v1.6043h-4.813v-3.2087h-1.6043v-1.6043h1.6043v-1.6043h1.6043v-1.6043h3.2087v-1.6043h-1.6043v-3.2087h1.6043v-1.6043h1.6043v1.6043h3.2087v1.6043h-1.6043v1.6043h1.6043v3.2087h4.813v1.6043h-6.4174v1.6043h1.6043v3.2087h1.6043v1.6043zm-9.626-4.813h.80215v-1.6043h-1.6043v1.6043zm4.0108-1.6043h1.6043v-3.2087h1.6043v-1.6043h-1.6043v-1.6043h-1.6043v1.6043h1.6043v1.6043h-1.6043v1.6043h-1.6043v1.6043zm8.8239 6.4173h-.80219v-1.6043h1.6044v1.6043zm-12.835-11.23h-.80219v-1.6043h1.6043v1.6043zm-8.0217-1.6043h-.80215v-1.6043h1.6043v1.6043zm8.0217-3.2087h-.80219v-1.6043h-1.6043v-1.6043h1.6043v1.6043h1.6043v1.6043zm-6.4174-3.2087h-.80215v-1.6043h1.6043v1.6043zm-8.0217-4.813h-.80215v-1.6043h1.6043v-1.6043h-3.2087v1.6043h-1.6043v-1.6043h-1.6043v-1.6043h1.6043v-1.6043h1.6043v-3.2087h-1.6043v1.6043h-1.6043v-1.6043h1.6043v-1.6043h1.6043v-1.6043h1.6043v-1.6043h3.2087v-1.6043h4.813v1.6043h1.6043v1.6043h-3.2087v-1.6043h-3.2087v1.6043h-3.2087v1.6043h1.6043v1.6043h-1.6043v1.6043h1.6043v1.6043h1.6043v1.6043h1.6043v1.6043h-1.6043v1.6043h-1.6043v1.6043zm-3.2086-3.2087h.80215v-1.6043h3.2087v-1.6043h-3.2087v1.6043h-1.6043v1.6043zm17.648 0h-.80219v-3.2087h1.6043v3.2087zm3.2087 0h-.80218v-1.6043h1.6043v1.6043zm-3.2087-9.626h-.80219v-1.6043h-1.6043v-1.6043h-1.6043v-1.6043h-3.2087v-1.6043h1.6043v-1.6043h1.6043v1.6043h1.6043v1.6043h1.6043v3.2087h1.6043v1.6043zm-2.4065 51.339h1.6043v-1.6043h-1.6043v-1.6043h-1.6043v-1.6043h-1.6043v1.6043h-1.6043v1.6043h3.2087v1.6043zm7.2195 0h.80215v-1.6043h-1.6043v1.6043zm3.2087 0h.80216v-3.2087h1.6043v-1.6043h-3.2087v-1.6043h3.2087v-1.6043h-4.813v1.6043h-4.813v1.6043h1.6043v1.6043h1.6043v-1.6043h3.2087v4.813zm6.4173-1.6043h2.4066v-4.813h-4.8131v4.813zm0-1.6043h-.80216v-1.6043h1.6043v1.6043zm28.878 1.6043h2.4065v-4.813h-4.8131v4.813zm0-1.6043h-.8022v-1.6043h1.6043v1.6043zm-44.922-1.6043h.80215v-1.6043h-1.6043v1.6043zm-12.835-6.4173h.80218v-1.6043h-1.6043v1.6043zm3.2087-8.0217h.80219v-1.6043h1.6043v-1.6043h-1.6043v-1.6043h-3.2087v-1.6043h1.6043v-1.6043h-1.6043v-1.6043h-1.6043v1.6043h-1.6043v1.6043h1.6043v1.6043h1.6043v1.6043h-1.6043v1.6043h3.2087v1.6043zm-3.2087-6.4173h-.80215v-1.6043h1.6043v1.6043zm-4.813 4.813h.80215v-1.6043h-1.6043v1.6043zm48.13 0h.8022v-1.6043h1.6043v-1.6043h1.6044v-6.4174h-1.6044v-3.2087h-1.6043v-1.6043h3.2087v-1.6043h1.6043v1.6043h1.6044v-1.6043h-1.6044v-1.6043h1.6044v-1.6043h-1.6044v1.6043h-1.6043v1.6043h-1.6044v-1.6043h-4.813v-1.6043h3.2087v-1.6043h1.6043v1.6043h1.6044v-1.6043h-1.6044v-3.2087h-1.6043v1.6043h-1.6043v-1.6043h-3.2087v-1.6043h1.6043v-1.6043h1.6044v1.6043h4.813v-1.6043h1.6043v6.4173h1.6044v-3.2087h3.2086v1.6043h-1.6043v8.0217h1.6043v-1.6043h1.6043v-1.6043h-1.6043v-1.6043h3.2087v1.6043h1.6043v-1.6043h1.6044v-1.6043h-1.6044v1.6043h-1.6043v-1.6043h-3.2087v-1.6043h1.6043v-1.6043h-1.6043v-1.6043h1.6043v-4.813h-1.6043v-4.813h1.6043v1.6043h1.6044v-1.6043h-1.6044v-1.6043h-1.6043v-1.6043h-3.2086v1.6043h-3.2087v-1.6043h-1.6044v1.6043h-1.6043v-1.6043h-1.6043v1.6043h1.6043v3.2087h1.6043v1.6043h-1.6043v3.2087h-3.2087v-1.6043h-1.6043v-1.6043h1.6043v-1.6043h-3.2086v1.6043h-1.6043v-1.6043h-1.6044v-1.6043h1.6044v-3.2087h3.2086v3.2087h1.6043v-8.0217h1.6044v-3.2087h1.6043v-1.6043h-1.6043v1.6043h-1.6044v3.2087h-3.2086v1.6043h-1.6043v1.6043h-1.6044v1.6043h-1.6043v1.6043h1.6043v1.6043h-1.6043v1.6043h-3.2087v-1.6043h1.6044v-1.6043h-1.6044v1.6043h-1.6043v1.6043h-1.6044v1.6043h1.6044v-1.6043h1.6043v1.6043h1.6044v1.6043h-1.6044v1.6043h-3.2087v1.6043h3.2087v4.813h1.6044v-1.6043h1.6043v1.6043h1.6043v3.2087h-1.6043v-1.6043h-1.6043v1.6043h-1.6044v1.6043h-1.6043v1.6043h3.2087v-3.2087h1.6043v1.6043h3.2087v-3.2087h1.6043v-1.6043h-1.6043v-1.6043h3.2086v3.2087h1.6043v1.6043h-1.6043v4.813h-1.6043v3.2087h1.6043v3.2087h-1.6043v3.2087h3.2086v-3.2087h1.6044v3.2087h1.6043v1.6043h-1.6043v3.2087zm1.6044-6.4173h-.8022v-1.6043h-1.6043v-1.6043h-1.6044v-3.2087h-1.6043v-1.6043h3.2087v1.6043h1.6043v4.813h1.6043v1.6043zm-11.23-17.648h-.80215v-3.2087h-1.6043v-3.2087h1.6043v-3.2087h1.6043v4.813h-1.6043v1.6043h1.6043v3.2087zm4.813-1.6043h-.80216v-1.6043h-1.6043v-3.2087h3.2086v4.813zm13.637-1.6043h-1.6043v-3.2087h3.2086v3.2087zm-4.0109-3.2087h-.8021v-3.2087h-1.6044v-3.2087h1.6044v3.2087h3.2087v-3.2087h3.2086v1.6043h-1.6043v3.2087h-3.2087v1.6043zm-9.626-9.626h-.80216v-1.6043h1.6043v1.6043zm11.23 36.9h.8022v-1.6043h3.2086v-3.2087h-1.6043v1.6043h-3.2087v3.2087zm12.032-1.6043h1.6044v-1.6043h-1.6044v-1.6043h-1.6043v3.2087zm-69.789-1.6043h.80216v-1.6043h-1.6043v1.6043zm64.174 0h.8021v-1.6043h-1.6044v1.6043zm-6.4174-1.6043h.8022v-3.2087h1.6043v1.6043h1.6043v-1.6043h-1.6043v-1.6043h-3.2087v4.813zm-57.756-1.6043h.80216v-1.6043h-1.6043v1.6043zm8.0217 0h2.4065v-4.813h-4.813v4.813zm0-1.6043h-.80215v-1.6043h1.6043v1.6043zm28.878 1.6043h2.4066v-4.813h-4.8131v4.813zm0-1.6043h-.80216v-1.6043h1.6043v1.6043zm28.878 1.6043h2.4065v-4.813h-4.8131v4.813zm0-1.6043h-.8022v-1.6043h1.6043v1.6043zm4.8129 1.6043h.8023v-3.2087h-1.6044v3.2087zm-39.306-1.6043h1.6043v-1.6043h-3.2087v1.6043zm3.2087-11.23h1.6044v-1.6043h-3.2087v1.6043zm32.889 0h.8022v-3.2087h-1.6044v-1.6043h-1.6043v3.2087h1.6043v1.6043zm3.2086-3.2087h.8023v-3.2087h1.6043v-1.6043h-4.813v-1.6043h-1.6044v1.6043h1.6044v1.6043h1.6043v3.2087zm-70.591-3.2087h.80216v-3.2087h-1.6043v3.2087zm32.087-3.2087h.80215v-3.2087h-1.6043v3.2087zm38.504 0h.8023v-1.6043h-1.6044v-1.6043h3.2087v-1.6043h-3.2087v1.6043h-1.6043v-1.6043h-1.6044v1.6043h1.6044v1.6043h1.6043v1.6043zm-70.591-3.2087h.80216v-1.6043h-1.6043v1.6043zm36.9-3.2087h2.4066v-4.813h-4.8131v4.813zm0-1.6043h-.80216v-1.6043h1.6043v1.6043zm-8.0217 0h.80215v-1.6043h-1.6043v1.6043zm22.461 0h.8022v-1.6043h1.6043v1.6043h1.6044v-1.6043h1.6043v1.6043h1.6044v-1.6043h-1.6044v-1.6043h-1.6043v1.6043h-1.6044v-3.2087h3.2087v-1.6043h-3.2087v1.6043h-1.6043v3.2087h-1.6043v1.6043zm-16.043-4.813h2.4065v-1.6043h-1.6043v-3.2087h-1.6044v3.2087h-1.6043v1.6043zm-14.439 72.195h-.80215v-1.6043h-1.6043v-1.6043h1.6043v1.6043h1.6043v-1.6043h1.6043v-1.6043h1.6043v1.6043h1.6043v1.6043h1.6043v1.6043h-1.6043v-1.6043h-1.6043v1.6043h-1.6043v-1.6043h-1.6043v1.6043zm11.23 0h-.80218v-1.6043h1.6043v-1.6043h1.6043v1.6043h1.6044v1.6043h-1.6044v-1.6043h-1.6043v1.6043zm6.4173 0h-.80216v-1.6043h1.6044v1.6043zm3.2087 0h-.80215v-1.6043h1.6043v1.6043zm33.691-14.439h-.8022v-1.6044h1.6044v1.6044zm-72.195-52.943h-5.6152v-11.23h11.23v11.23zm0-1.6043h4.0108v-8.0217h-8.0217v8.0217zm0-1.6043h-2.4065v-4.813h4.813v4.813zm67.382 3.2087h-5.6151v-11.23h11.23v11.23zm0-1.6043h4.0109v-8.0217h-8.0217v8.0217zm0-1.6043h-2.4064v-4.813h4.813v4.813zm-9.6259-1.6043h-.8022v-3.2087h-1.6043v-1.6043h3.2086v-1.6043h1.6043v4.813h-1.6043v1.6043zm-33.691-3.2087h-.80219v-1.6043h1.6043v1.6043z" stroke-width=".076397"/></g></svg>
